<?xml version="1.0" encoding="utf-8" standalone="no"?>
<!DOCTYPE svg PUBLIC "-//W3C//DTD SVG 1.1//EN"
  "http://www.w3.org/Graphics/SVG/1.1/DTD/svg11.dtd">
<svg xmlns:xlink="http://www.w3.org/1999/xlink" width="360pt" height="360pt" viewBox="0 0 360 360" xmlns="http://www.w3.org/2000/svg" version="1.1">
 <metadata>
  <rdf:RDF xmlns:dc="http://purl.org/dc/elements/1.1/" xmlns:cc="http://creativecommons.org/ns#" xmlns:rdf="http://www.w3.org/1999/02/22-rdf-syntax-ns#">
   <cc:Work>
    <dc:type rdf:resource="http://purl.org/dc/dcmitype/StillImage"/>
    <dc:date>2023-12-08T14:21:11.338495</dc:date>
    <dc:format>image/svg+xml</dc:format>
    <dc:creator>
     <cc:Agent>
      <dc:title>Matplotlib v3.8.2, https://matplotlib.org/</dc:title>
     </cc:Agent>
    </dc:creator>
   </cc:Work>
  </rdf:RDF>
 </metadata>
 <defs>
  <style type="text/css">*{stroke-linejoin: round; stroke-linecap: butt}</style>
 </defs>
 <g id="figure_1">
  <g id="patch_1">
   <path d="M 0 360 
L 360 360 
L 360 0 
L 0 0 
z
" style="fill: #ffffff"/>
  </g>
  <g id="axes_1">
   <g id="patch_2">
    <path d="M 45 320.4 
L 324 320.4 
L 324 43.2 
L 45 43.2 
z
" style="fill: #ffffff"/>
   </g>
   <g id="PathCollection_1">
    <path d="M 104.625565 182.266583 
L 107.729829 179.162319 
L 104.625565 176.058054 
L 101.521301 179.162319 
z
" clip-path="url(#p7eca0322cd)" style="fill: #1f77b4; fill-opacity: 0.4; stroke: #ffffff; stroke-opacity: 0.4; stroke-width: 0.339584"/>
    <path d="M 274.183576 286.193942 
L 272.159921 287.664214 
L 272.932888 290.043163 
L 275.434264 290.043163 
L 276.207231 287.664214 
z
" clip-path="url(#p7eca0322cd)" style="fill: #ff7f0e; fill-opacity: 0.4; stroke: #ffffff; stroke-opacity: 0.4; stroke-width: 0.339584"/>
    <path d="M 262.973129 252.793554 
L 265.184075 248.371663 
L 260.762183 248.371663 
z
" clip-path="url(#p7eca0322cd)" style="fill: #2ca02c; fill-opacity: 0.4; stroke: #ffffff; stroke-opacity: 0.4; stroke-width: 0.339584"/>
    <path d="M 145.263435 133.456471 
L 147.441645 129.100051 
L 143.085226 129.100051 
z
" clip-path="url(#p7eca0322cd)" style="fill: #2ca02c; fill-opacity: 0.4; stroke: #ffffff; stroke-opacity: 0.4; stroke-width: 0.339584"/>
    <path d="M 262.973129 274.8381 
L 262.496863 276.303896 
L 260.955634 276.303896 
L 262.202514 277.209808 
L 261.726248 278.675604 
L 262.973129 277.769693 
L 264.22001 278.675604 
L 263.743744 277.209808 
L 264.990625 276.303896 
L 263.449395 276.303896 
z
" clip-path="url(#p7eca0322cd)" style="fill: #d62728; fill-opacity: 0.4; stroke: #ffffff; stroke-opacity: 0.4; stroke-width: 0.339584"/>
    <path d="M 261.454531 275.526498 
L 265.893033 275.526498 
L 265.893033 271.087995 
L 261.454531 271.087995 
z
" clip-path="url(#p7eca0322cd)" style="fill: #9467bd; fill-opacity: 0.4; stroke: #ffffff; stroke-opacity: 0.4; stroke-width: 0.339584"/>
    <path d="M 251.062029 301.208156 
L 249.038109 302.67862 
L 249.811178 305.057881 
L 252.312881 305.057881 
L 253.08595 302.67862 
z
" clip-path="url(#p7eca0322cd)" style="fill: #ff7f0e; fill-opacity: 0.4; stroke: #ffffff; stroke-opacity: 0.4; stroke-width: 0.339584"/>
    <path d="M 304.311652 285.351687 
C 304.600172 285.351687 304.876913 285.237057 305.080927 285.033043 
C 305.284941 284.829029 305.399571 284.552287 305.399571 284.263768 
C 305.399571 283.975249 305.284941 283.698508 305.080927 283.494494 
C 304.876913 283.29048 304.600172 283.17585 304.311652 283.17585 
C 304.023133 283.17585 303.746392 283.29048 303.542378 283.494494 
C 303.338364 283.698508 303.223734 283.975249 303.223734 284.263768 
C 303.223734 284.552287 303.338364 284.829029 303.542378 285.033043 
C 303.746392 285.237057 304.023133 285.351687 304.311652 285.351687 
z
" clip-path="url(#p7eca0322cd)" style="fill: #8c564b; fill-opacity: 0.4; stroke: #ffffff; stroke-opacity: 0.4; stroke-width: 0.339584"/>
    <path d="M 297.305123 297.543279 
L 295.269122 299.022521 
L 296.046805 301.415984 
L 298.563441 301.415984 
L 299.341125 299.022521 
z
" clip-path="url(#p7eca0322cd)" style="fill: #ff7f0e; fill-opacity: 0.4; stroke: #ffffff; stroke-opacity: 0.4; stroke-width: 0.339584"/>
    <path d="M 238.450276 281.714423 
L 236.411641 283.195578 
L 237.19033 285.592138 
L 239.710222 285.592138 
L 240.488912 283.195578 
z
" clip-path="url(#p7eca0322cd)" style="fill: #ff7f0e; fill-opacity: 0.4; stroke: #ffffff; stroke-opacity: 0.4; stroke-width: 0.339584"/>
    <path d="M 244.0555 282.141763 
L 243.57908 283.608032 
L 242.037353 283.608032 
L 243.284636 284.514237 
L 242.808216 285.980506 
L 244.0555 285.074302 
L 245.302783 285.980506 
L 244.826363 284.514237 
L 246.073647 283.608032 
L 244.53192 283.608032 
z
" clip-path="url(#p7eca0322cd)" style="fill: #d62728; fill-opacity: 0.4; stroke: #ffffff; stroke-opacity: 0.4; stroke-width: 0.339584"/>
    <path d="M 281.890758 281.181013 
L 284.894959 278.176812 
L 281.890758 275.172611 
L 278.886557 278.176812 
z
" clip-path="url(#p7eca0322cd)" style="fill: #1f77b4; fill-opacity: 0.4; stroke: #ffffff; stroke-opacity: 0.4; stroke-width: 0.339584"/>
    <path d="M 220.933953 278.011379 
L 224.420695 274.524638 
L 220.933953 271.037896 
L 217.447211 274.524638 
z
" clip-path="url(#p7eca0322cd)" style="fill: #1f77b4; fill-opacity: 0.4; stroke: #ffffff; stroke-opacity: 0.4; stroke-width: 0.339584"/>
    <path d="M 258.068559 282.953597 
L 257.592193 284.419701 
L 256.05064 284.419701 
L 257.297782 285.325803 
L 256.821416 286.791906 
L 258.068559 285.885804 
L 259.315701 286.791906 
L 258.839335 285.325803 
L 260.086477 284.419701 
L 258.544924 284.419701 
z
" clip-path="url(#p7eca0322cd)" style="fill: #d62728; fill-opacity: 0.4; stroke: #ffffff; stroke-opacity: 0.4; stroke-width: 0.339584"/>
    <path d="M 225.13787 297.135304 
L 223.099797 298.616051 
L 223.878272 301.01195 
L 226.397469 301.01195 
L 227.175944 298.616051 
z
" clip-path="url(#p7eca0322cd)" style="fill: #ff7f0e; fill-opacity: 0.4; stroke: #ffffff; stroke-opacity: 0.4; stroke-width: 0.339584"/>
    <path d="M 291.6999 282.928281 
L 289.657904 284.411878 
L 290.437877 286.812388 
L 292.961922 286.812388 
L 293.741896 284.411878 
z
" clip-path="url(#p7eca0322cd)" style="fill: #ff7f0e; fill-opacity: 0.4; stroke: #ffffff; stroke-opacity: 0.4; stroke-width: 0.339584"/>
    <path d="M 230.042441 252.924438 
L 229.566036 254.390662 
L 228.024357 254.390662 
L 229.271602 255.296838 
L 228.795197 256.763061 
L 230.042441 255.856885 
L 231.289685 256.763061 
L 230.81328 255.296838 
L 232.060525 254.390662 
L 230.518846 254.390662 
z
" clip-path="url(#p7eca0322cd)" style="fill: #d62728; fill-opacity: 0.4; stroke: #ffffff; stroke-opacity: 0.4; stroke-width: 0.339584"/>
    <path d="M 164.181065 172.380906 
L 166.327188 168.088659 
L 162.034942 168.088659 
z
" clip-path="url(#p7eca0322cd)" style="fill: #2ca02c; fill-opacity: 0.4; stroke: #ffffff; stroke-opacity: 0.4; stroke-width: 0.339584"/>
    <path d="M 237.04897 276.309479 
L 240.051203 273.307246 
L 237.04897 270.305013 
L 234.046737 273.307246 
z
" clip-path="url(#p7eca0322cd)" style="fill: #1f77b4; fill-opacity: 0.4; stroke: #ffffff; stroke-opacity: 0.4; stroke-width: 0.339584"/>
    <path d="M 238.406466 235.279102 
L 242.698004 235.279102 
L 242.698004 230.987565 
L 238.406466 230.987565 
z
" clip-path="url(#p7eca0322cd)" style="fill: #9467bd; fill-opacity: 0.4; stroke: #ffffff; stroke-opacity: 0.4; stroke-width: 0.339584"/>
    <path d="M 280.489453 304.858503 
L 278.463795 306.33023 
L 279.237527 308.711533 
L 281.741378 308.711533 
L 282.51511 306.33023 
z
" clip-path="url(#p7eca0322cd)" style="fill: #ff7f0e; fill-opacity: 0.4; stroke: #ffffff; stroke-opacity: 0.4; stroke-width: 0.339584"/>
    <path d="M 138.957559 259.607494 
L 141.083893 255.354825 
L 136.831225 255.354825 
z
" clip-path="url(#p7eca0322cd)" style="fill: #2ca02c; fill-opacity: 0.4; stroke: #ffffff; stroke-opacity: 0.4; stroke-width: 0.339584"/>
    <path d="M 246.403048 290.878762 
L 251.517093 290.878762 
L 251.517093 285.764717 
L 246.403048 285.764717 
z
" clip-path="url(#p7eca0322cd)" style="fill: #9467bd; fill-opacity: 0.4; stroke: #ffffff; stroke-opacity: 0.4; stroke-width: 0.339584"/>
    <path d="M 267.8777 284.018475 
L 270.878783 281.017391 
L 267.8777 278.016308 
L 264.876616 281.017391 
z
" clip-path="url(#p7eca0322cd)" style="fill: #1f77b4; fill-opacity: 0.4; stroke: #ffffff; stroke-opacity: 0.4; stroke-width: 0.339584"/>
    <path d="M 251.762682 294.705898 
L 249.729723 296.18293 
L 250.506244 298.572817 
L 253.01912 298.572817 
L 253.795641 296.18293 
z
" clip-path="url(#p7eca0322cd)" style="fill: #ff7f0e; fill-opacity: 0.4; stroke: #ffffff; stroke-opacity: 0.4; stroke-width: 0.339584"/>
    <path d="M 157.875188 125.309126 
L 160.021995 121.015512 
L 155.728382 121.015512 
z
" clip-path="url(#p7eca0322cd)" style="fill: #2ca02c; fill-opacity: 0.4; stroke: #ffffff; stroke-opacity: 0.4; stroke-width: 0.339584"/>
    <path d="M 213.927423 249.980661 
L 216.977649 246.930435 
L 213.927423 243.880209 
L 210.877197 246.930435 
z
" clip-path="url(#p7eca0322cd)" style="fill: #1f77b4; fill-opacity: 0.4; stroke: #ffffff; stroke-opacity: 0.4; stroke-width: 0.339584"/>
    <path d="M 143.86213 174.843993 
L 146.036558 170.495137 
L 141.687702 170.495137 
z
" clip-path="url(#p7eca0322cd)" style="fill: #2ca02c; fill-opacity: 0.4; stroke: #ffffff; stroke-opacity: 0.4; stroke-width: 0.339584"/>
    <path d="M 300.107735 290.177048 
L 299.613206 291.69905 
L 298.012879 291.69905 
L 299.307571 292.639699 
L 298.813043 294.161701 
L 300.107735 293.221052 
L 301.402427 294.161701 
L 300.907898 292.639699 
L 302.202591 291.69905 
L 300.602263 291.69905 
z
" clip-path="url(#p7eca0322cd)" style="fill: #d62728; fill-opacity: 0.4; stroke: #ffffff; stroke-opacity: 0.4; stroke-width: 0.339584"/>
    <path d="M 238.450276 272.588978 
L 240.572588 268.344355 
L 236.327965 268.344355 
z
" clip-path="url(#p7eca0322cd)" style="fill: #2ca02c; fill-opacity: 0.4; stroke: #ffffff; stroke-opacity: 0.4; stroke-width: 0.339584"/>
    <path d="M 75.198142 192.251252 
L 77.330553 187.986429 
L 73.06573 187.986429 
z
" clip-path="url(#p7eca0322cd)" style="fill: #2ca02c; fill-opacity: 0.4; stroke: #ffffff; stroke-opacity: 0.4; stroke-width: 0.339584"/>
    <path d="M 129.849071 117.605503 
L 132.0024 113.298845 
L 127.695742 113.298845 
z
" clip-path="url(#p7eca0322cd)" style="fill: #2ca02c; fill-opacity: 0.4; stroke: #ffffff; stroke-opacity: 0.4; stroke-width: 0.339584"/>
    <path d="M 281.830497 289.672365 
L 286.154937 289.672365 
L 286.154937 285.347925 
L 281.830497 285.347925 
z
" clip-path="url(#p7eca0322cd)" style="fill: #9467bd; fill-opacity: 0.4; stroke: #ffffff; stroke-opacity: 0.4; stroke-width: 0.339584"/>
    <path d="M 261.571823 302.843478 
L 267.571823 296.843478 
L 261.571823 290.843478 
L 255.571823 296.843478 
z
" clip-path="url(#p7eca0322cd)" style="fill: #1f77b4; fill-opacity: 0.4; stroke: #ffffff; stroke-opacity: 0.4; stroke-width: 0.339584"/>
    <path d="M 271.953713 272.290732 
L 276.413439 272.290732 
L 276.413439 267.831007 
L 271.953713 267.831007 
z
" clip-path="url(#p7eca0322cd)" style="fill: #9467bd; fill-opacity: 0.4; stroke: #ffffff; stroke-opacity: 0.4; stroke-width: 0.339584"/>
    <path d="M 204.818935 176.821482 
L 206.941866 172.57562 
L 202.696004 172.57562 
z
" clip-path="url(#p7eca0322cd)" style="fill: #2ca02c; fill-opacity: 0.4; stroke: #ffffff; stroke-opacity: 0.4; stroke-width: 0.339584"/>
    <path d="M 290.298594 286.595338 
L 289.819885 288.068651 
L 288.270752 288.068651 
L 289.524027 288.979208 
L 289.045319 290.452521 
L 290.298594 289.541964 
L 291.551869 290.452521 
L 291.07316 288.979208 
L 292.326435 288.068651 
L 290.777302 288.068651 
z
" clip-path="url(#p7eca0322cd)" style="fill: #d62728; fill-opacity: 0.4; stroke: #ffffff; stroke-opacity: 0.4; stroke-width: 0.339584"/>
    <path d="M 272.78227 296.741571 
L 270.755671 298.213982 
L 271.529763 300.596392 
L 274.034777 300.596392 
L 274.808869 298.213982 
z
" clip-path="url(#p7eca0322cd)" style="fill: #ff7f0e; fill-opacity: 0.4; stroke: #ffffff; stroke-opacity: 0.4; stroke-width: 0.339584"/>
    <path d="M 275.584882 299.565755 
L 275.102786 301.049495 
L 273.54269 301.049495 
L 274.804834 301.966496 
L 274.322738 303.450236 
L 275.584882 302.533235 
L 276.847026 303.450236 
L 276.36493 301.966496 
L 277.627074 301.049495 
L 276.066978 301.049495 
z
" clip-path="url(#p7eca0322cd)" style="fill: #d62728; fill-opacity: 0.4; stroke: #ffffff; stroke-opacity: 0.4; stroke-width: 0.339584"/>
    <path d="M 300.808388 299.183445 
L 298.788533 300.650956 
L 299.560049 303.025438 
L 302.056727 303.025438 
L 302.828243 300.650956 
z
" clip-path="url(#p7eca0322cd)" style="fill: #ff7f0e; fill-opacity: 0.4; stroke: #ffffff; stroke-opacity: 0.4; stroke-width: 0.339584"/>
    <path d="M 279.7888 293.480733 
L 277.748447 294.963136 
L 278.527792 297.361714 
L 281.049807 297.361714 
L 281.829152 294.963136 
z
" clip-path="url(#p7eca0322cd)" style="fill: #ff7f0e; fill-opacity: 0.4; stroke: #ffffff; stroke-opacity: 0.4; stroke-width: 0.339584"/>
    <path d="M 290.999247 281.723792 
L 288.969522 283.198473 
L 289.744808 285.584558 
L 292.253686 285.584558 
L 293.028972 283.198473 
z
" clip-path="url(#p7eca0322cd)" style="fill: #ff7f0e; fill-opacity: 0.4; stroke: #ffffff; stroke-opacity: 0.4; stroke-width: 0.339584"/>
    <path d="M 174.690859 230.386929 
L 176.814019 226.140608 
L 172.567698 226.140608 
z
" clip-path="url(#p7eca0322cd)" style="fill: #2ca02c; fill-opacity: 0.4; stroke: #ffffff; stroke-opacity: 0.4; stroke-width: 0.339584"/>
    <path d="M 255.265947 260.205405 
L 254.784292 261.687784 
L 253.225626 261.687784 
L 254.486614 262.603945 
L 254.004959 264.086325 
L 255.265947 263.170164 
L 256.526934 264.086325 
L 256.04528 262.603945 
L 257.306267 261.687784 
L 255.747601 261.687784 
z
" clip-path="url(#p7eca0322cd)" style="fill: #d62728; fill-opacity: 0.4; stroke: #ffffff; stroke-opacity: 0.4; stroke-width: 0.339584"/>
    <path d="M 257.311741 261.262471 
L 261.627988 261.262471 
L 261.627988 256.946224 
L 257.311741 256.946224 
z
" clip-path="url(#p7eca0322cd)" style="fill: #9467bd; fill-opacity: 0.4; stroke: #ffffff; stroke-opacity: 0.4; stroke-width: 0.339584"/>
    <path d="M 228.641135 253.311532 
L 230.964262 248.665279 
L 226.318009 248.665279 
z
" clip-path="url(#p7eca0322cd)" style="fill: #2ca02c; fill-opacity: 0.4; stroke: #ffffff; stroke-opacity: 0.4; stroke-width: 0.339584"/>
    <path d="M 252.463335 271.577813 
L 251.983946 273.053221 
L 250.43261 273.053221 
L 251.687667 273.965073 
L 251.208278 275.440481 
L 252.463335 274.528629 
L 253.718392 275.440481 
L 253.239003 273.965073 
L 254.49406 273.053221 
L 252.942724 273.053221 
z
" clip-path="url(#p7eca0322cd)" style="fill: #d62728; fill-opacity: 0.4; stroke: #ffffff; stroke-opacity: 0.4; stroke-width: 0.339584"/>
    <path d="M 155.072577 173.981033 
L 157.195638 169.734909 
L 152.949515 169.734909 
z
" clip-path="url(#p7eca0322cd)" style="fill: #2ca02c; fill-opacity: 0.4; stroke: #ffffff; stroke-opacity: 0.4; stroke-width: 0.339584"/>
    <path d="M 152.970618 179.266498 
L 155.103782 175.000169 
L 150.837453 175.000169 
z
" clip-path="url(#p7eca0322cd)" style="fill: #2ca02c; fill-opacity: 0.4; stroke: #ffffff; stroke-opacity: 0.4; stroke-width: 0.339584"/>
    <path d="M 272.78227 292.690351 
L 270.762092 294.158097 
L 271.533731 296.532959 
L 274.030809 296.532959 
L 274.802449 294.158097 
z
" clip-path="url(#p7eca0322cd)" style="fill: #ff7f0e; fill-opacity: 0.4; stroke: #ffffff; stroke-opacity: 0.4; stroke-width: 0.339584"/>
    <path d="M 184.5 189.212177 
L 186.839713 184.532751 
L 182.160287 184.532751 
z
" clip-path="url(#p7eca0322cd)" style="fill: #2ca02c; fill-opacity: 0.4; stroke: #ffffff; stroke-opacity: 0.4; stroke-width: 0.339584"/>
    <path d="M 188.703918 258.542745 
C 188.985453 258.542745 189.255496 258.430889 189.454572 258.231813 
C 189.653647 258.032738 189.765503 257.762695 189.765503 257.481159 
C 189.765503 257.199624 189.653647 256.929581 189.454572 256.730505 
C 189.255496 256.53143 188.985453 256.419574 188.703918 256.419574 
C 188.422382 256.419574 188.152339 256.53143 187.953264 256.730505 
C 187.754188 256.929581 187.642332 257.199624 187.642332 257.481159 
C 187.642332 257.762695 187.754188 258.032738 187.953264 258.231813 
C 188.152339 258.430889 188.422382 258.542745 188.703918 258.542745 
z
" clip-path="url(#p7eca0322cd)" style="fill: #8c564b; fill-opacity: 0.4; stroke: #ffffff; stroke-opacity: 0.4; stroke-width: 0.339584"/>
    <path d="M 294.502511 282.941564 
L 292.473148 284.415982 
L 293.248296 286.801641 
L 295.756727 286.801641 
L 296.531874 284.415982 
z
" clip-path="url(#p7eca0322cd)" style="fill: #ff7f0e; fill-opacity: 0.4; stroke: #ffffff; stroke-opacity: 0.4; stroke-width: 0.339584"/>
    <path d="M 300.808388 277.940647 
L 298.654102 279.505827 
L 299.476966 282.038342 
L 302.13981 282.038342 
L 302.962673 279.505827 
z
" clip-path="url(#p7eca0322cd)" style="fill: #ff7f0e; fill-opacity: 0.4; stroke: #ffffff; stroke-opacity: 0.4; stroke-width: 0.339584"/>
    <path d="M 189.404571 201.577268 
L 191.529665 197.327079 
L 187.279476 197.327079 
z
" clip-path="url(#p7eca0322cd)" style="fill: #2ca02c; fill-opacity: 0.4; stroke: #ffffff; stroke-opacity: 0.4; stroke-width: 0.339584"/>
    <path d="M 204.818935 132.592374 
L 206.944643 128.340959 
L 202.693228 128.340959 
z
" clip-path="url(#p7eca0322cd)" style="fill: #2ca02c; fill-opacity: 0.4; stroke: #ffffff; stroke-opacity: 0.4; stroke-width: 0.339584"/>
    <path d="M 238.450276 284.974009 
L 236.424204 286.446037 
L 237.198095 288.827828 
L 239.702458 288.827828 
L 240.476349 286.446037 
z
" clip-path="url(#p7eca0322cd)" style="fill: #ff7f0e; fill-opacity: 0.4; stroke: #ffffff; stroke-opacity: 0.4; stroke-width: 0.339584"/>
    <path d="M 293.801858 299.818675 
L 291.614271 301.40805 
L 292.449855 303.979714 
L 295.153862 303.979714 
L 295.989446 301.40805 
z
" clip-path="url(#p7eca0322cd)" style="fill: #ff7f0e; fill-opacity: 0.4; stroke: #ffffff; stroke-opacity: 0.4; stroke-width: 0.339584"/>
    <path d="M 185.200653 210.969089 
L 187.384234 206.601926 
L 183.017072 206.601926 
z
" clip-path="url(#p7eca0322cd)" style="fill: #2ca02c; fill-opacity: 0.4; stroke: #ffffff; stroke-opacity: 0.4; stroke-width: 0.339584"/>
    <path d="M 295.203164 295.508778 
L 293.161917 296.991831 
L 293.941604 299.391461 
L 296.464724 299.391461 
L 297.244411 296.991831 
z
" clip-path="url(#p7eca0322cd)" style="fill: #ff7f0e; fill-opacity: 0.4; stroke: #ffffff; stroke-opacity: 0.4; stroke-width: 0.339584"/>
    <path d="M 228.641135 271.997486 
L 228.164861 273.463306 
L 226.623607 273.463306 
L 227.870508 274.369233 
L 227.394234 275.835053 
L 228.641135 274.929126 
L 229.888036 275.835053 
L 229.411762 274.369233 
L 230.658664 273.463306 
L 229.117409 273.463306 
z
" clip-path="url(#p7eca0322cd)" style="fill: #d62728; fill-opacity: 0.4; stroke: #ffffff; stroke-opacity: 0.4; stroke-width: 0.339584"/>
    <path d="M 236.348317 209.873309 
L 235.863687 211.364848 
L 234.295391 211.364848 
L 235.564169 212.286669 
L 235.079539 213.778208 
L 236.348317 212.856386 
L 237.617096 213.778208 
L 237.132466 212.286669 
L 238.401244 211.364848 
L 236.832948 211.364848 
z
" clip-path="url(#p7eca0322cd)" style="fill: #d62728; fill-opacity: 0.4; stroke: #ffffff; stroke-opacity: 0.4; stroke-width: 0.339584"/>
    <path d="M 141.760171 169.950071 
L 143.910242 165.649929 
L 139.6101 165.649929 
z
" clip-path="url(#p7eca0322cd)" style="fill: #2ca02c; fill-opacity: 0.4; stroke: #ffffff; stroke-opacity: 0.4; stroke-width: 0.339584"/>
    <path d="M 117.237318 167.896384 
L 119.362687 163.645645 
L 115.111949 163.645645 
z
" clip-path="url(#p7eca0322cd)" style="fill: #2ca02c; fill-opacity: 0.4; stroke: #ffffff; stroke-opacity: 0.4; stroke-width: 0.339584"/>
    <path d="M 193.587566 262.44462 
L 197.833328 262.44462 
L 197.833328 258.198858 
L 193.587566 258.198858 
z
" clip-path="url(#p7eca0322cd)" style="fill: #9467bd; fill-opacity: 0.4; stroke: #ffffff; stroke-opacity: 0.4; stroke-width: 0.339584"/>
    <path d="M 178.194124 235.451364 
L 177.712375 236.934032 
L 176.153406 236.934032 
L 177.414639 237.850371 
L 176.932891 239.33304 
L 178.194124 238.4167 
L 179.455356 239.33304 
L 178.973608 237.850371 
L 180.234841 236.934032 
L 178.675872 236.934032 
z
" clip-path="url(#p7eca0322cd)" style="fill: #d62728; fill-opacity: 0.4; stroke: #ffffff; stroke-opacity: 0.4; stroke-width: 0.339584"/>
    <path d="M 239.150929 240.326964 
L 238.670536 241.805462 
L 237.115951 241.805462 
L 238.373637 242.719224 
L 237.893244 244.197722 
L 239.150929 243.28396 
L 240.408615 244.197722 
L 239.928222 242.719224 
L 241.185907 241.805462 
L 239.631322 241.805462 
z
" clip-path="url(#p7eca0322cd)" style="fill: #d62728; fill-opacity: 0.4; stroke: #ffffff; stroke-opacity: 0.4; stroke-width: 0.339584"/>
    <path d="M 265.075088 299.975061 
L 263.036232 301.456376 
L 263.815006 303.853195 
L 266.33517 303.853195 
L 267.113943 301.456376 
z
" clip-path="url(#p7eca0322cd)" style="fill: #ff7f0e; fill-opacity: 0.4; stroke: #ffffff; stroke-opacity: 0.4; stroke-width: 0.339584"/>
    <path d="M 311.318182 274.837551 
L 309.300164 276.303726 
L 310.070978 278.676049 
L 312.565386 278.676049 
L 313.3362 276.303726 
z
" clip-path="url(#p7eca0322cd)" style="fill: #ff7f0e; fill-opacity: 0.4; stroke: #ffffff; stroke-opacity: 0.4; stroke-width: 0.339584"/>
    <path d="M 198.513059 267.837682 
L 204.405813 261.944928 
L 198.513059 256.052173 
L 192.620304 261.944928 
z
" clip-path="url(#p7eca0322cd)" style="fill: #1f77b4; fill-opacity: 0.4; stroke: #ffffff; stroke-opacity: 0.4; stroke-width: 0.339584"/>
    <path d="M 225.838523 271.780523 
L 229.587163 268.031884 
L 225.838523 264.283245 
L 222.089884 268.031884 
z
" clip-path="url(#p7eca0322cd)" style="fill: #1f77b4; fill-opacity: 0.4; stroke: #ffffff; stroke-opacity: 0.4; stroke-width: 0.339584"/>
    <path d="M 250.361376 286.294536 
L 253.609535 283.046377 
L 250.361376 279.798218 
L 247.113217 283.046377 
z
" clip-path="url(#p7eca0322cd)" style="fill: #1f77b4; fill-opacity: 0.4; stroke: #ffffff; stroke-opacity: 0.4; stroke-width: 0.339584"/>
    <path d="M 199.914365 205.003513 
L 203.030921 201.886957 
L 199.914365 198.7704 
L 196.797808 201.886957 
z
" clip-path="url(#p7eca0322cd)" style="fill: #1f77b4; fill-opacity: 0.4; stroke: #ffffff; stroke-opacity: 0.4; stroke-width: 0.339584"/>
    <path d="M 300.107735 277.668076 
L 298.080155 279.141199 
L 298.854621 281.524763 
L 301.360848 281.524763 
L 302.135315 279.141199 
z
" clip-path="url(#p7eca0322cd)" style="fill: #ff7f0e; fill-opacity: 0.4; stroke: #ffffff; stroke-opacity: 0.4; stroke-width: 0.339584"/>
    <path d="M 302.910347 247.521613 
L 305.936307 244.495652 
L 302.910347 241.469692 
L 299.884386 244.495652 
z
" clip-path="url(#p7eca0322cd)" style="fill: #1f77b4; fill-opacity: 0.4; stroke: #ffffff; stroke-opacity: 0.4; stroke-width: 0.339584"/>
    <path d="M 303.610999 296.617293 
L 301.466205 298.175578 
L 302.285443 300.696935 
L 304.936556 300.696935 
L 305.755794 298.175578 
z
" clip-path="url(#p7eca0322cd)" style="fill: #ff7f0e; fill-opacity: 0.4; stroke: #ffffff; stroke-opacity: 0.4; stroke-width: 0.339584"/>
    <path d="M 253.163988 268.744905 
L 252.686321 270.215012 
L 251.140559 270.215012 
L 252.391107 271.123588 
L 251.91344 272.593695 
L 253.163988 271.685119 
L 254.414536 272.593695 
L 253.936869 271.123588 
L 255.187416 270.215012 
L 253.641655 270.215012 
z
" clip-path="url(#p7eca0322cd)" style="fill: #d62728; fill-opacity: 0.4; stroke: #ffffff; stroke-opacity: 0.4; stroke-width: 0.339584"/>
    <path d="M 310.617529 305.101541 
L 314.006026 301.713043 
L 310.617529 298.324546 
L 307.229032 301.713043 
z
" clip-path="url(#p7eca0322cd)" style="fill: #1f77b4; fill-opacity: 0.4; stroke: #ffffff; stroke-opacity: 0.4; stroke-width: 0.339584"/>
    <path d="M 277.686841 236.969365 
L 280.711279 233.944928 
L 277.686841 230.92049 
L 274.662403 233.944928 
z
" clip-path="url(#p7eca0322cd)" style="fill: #1f77b4; fill-opacity: 0.4; stroke: #ffffff; stroke-opacity: 0.4; stroke-width: 0.339584"/>
    <path d="M 219.532647 266.219123 
L 222.589451 263.162319 
L 219.532647 260.105514 
L 216.475843 263.162319 
z
" clip-path="url(#p7eca0322cd)" style="fill: #1f77b4; fill-opacity: 0.4; stroke: #ffffff; stroke-opacity: 0.4; stroke-width: 0.339584"/>
    <path d="M 183.799347 190.720717 
L 186.024412 186.270587 
L 181.574282 186.270587 
z
" clip-path="url(#p7eca0322cd)" style="fill: #2ca02c; fill-opacity: 0.4; stroke: #ffffff; stroke-opacity: 0.4; stroke-width: 0.339584"/>
    <path d="M 169.085635 244.338945 
C 169.366932 244.338945 169.636745 244.227185 169.835652 244.028278 
C 170.034559 243.829371 170.146319 243.559558 170.146319 243.278261 
C 170.146319 242.996964 170.034559 242.727151 169.835652 242.528244 
C 169.636745 242.329337 169.366932 242.217577 169.085635 242.217577 
C 168.804339 242.217577 168.534525 242.329337 168.335619 242.528244 
C 168.136712 242.727151 168.024951 242.996964 168.024951 243.278261 
C 168.024951 243.559558 168.136712 243.829371 168.335619 244.028278 
C 168.534525 244.227185 168.804339 244.338945 169.085635 244.338945 
z
" clip-path="url(#p7eca0322cd)" style="fill: #8c564b; fill-opacity: 0.4; stroke: #ffffff; stroke-opacity: 0.4; stroke-width: 0.339584"/>
    <path d="M 232.845053 283.692473 
L 235.925931 280.611594 
L 232.845053 277.530715 
L 229.764174 280.611594 
z
" clip-path="url(#p7eca0322cd)" style="fill: #1f77b4; fill-opacity: 0.4; stroke: #ffffff; stroke-opacity: 0.4; stroke-width: 0.339584"/>
    <path d="M 295.203164 308.525137 
L 298.363084 305.365217 
L 295.203164 302.205298 
L 292.043245 305.365217 
z
" clip-path="url(#p7eca0322cd)" style="fill: #1f77b4; fill-opacity: 0.4; stroke: #ffffff; stroke-opacity: 0.4; stroke-width: 0.339584"/>
    <path d="M 290.298594 260.087765 
L 293.310997 257.075362 
L 290.298594 254.062959 
L 287.286191 257.075362 
z
" clip-path="url(#p7eca0322cd)" style="fill: #1f77b4; fill-opacity: 0.4; stroke: #ffffff; stroke-opacity: 0.4; stroke-width: 0.339584"/>
    <path d="M 255.9666 291.877238 
L 253.944976 293.346033 
L 254.717168 295.722594 
L 257.216032 295.722594 
L 257.988223 293.346033 
z
" clip-path="url(#p7eca0322cd)" style="fill: #ff7f0e; fill-opacity: 0.4; stroke: #ffffff; stroke-opacity: 0.4; stroke-width: 0.339584"/>
    <path d="M 280.489453 303.108631 
L 283.508228 300.089855 
L 280.489453 297.07108 
L 277.470677 300.089855 
z
" clip-path="url(#p7eca0322cd)" style="fill: #1f77b4; fill-opacity: 0.4; stroke: #ffffff; stroke-opacity: 0.4; stroke-width: 0.339584"/>
    <path d="M 57.681818 243.375315 
L 59.807858 239.123235 
L 55.555778 239.123235 
z
" clip-path="url(#p7eca0322cd)" style="fill: #2ca02c; fill-opacity: 0.4; stroke: #ffffff; stroke-opacity: 0.4; stroke-width: 0.339584"/>
    <path d="M 170.486941 174.395266 
L 172.618439 170.13227 
L 168.355443 170.13227 
z
" clip-path="url(#p7eca0322cd)" style="fill: #2ca02c; fill-opacity: 0.4; stroke: #ffffff; stroke-opacity: 0.4; stroke-width: 0.339584"/>
    <path d="M 246.858112 270.979058 
L 248.993691 266.707899 
L 244.722532 266.707899 
z
" clip-path="url(#p7eca0322cd)" style="fill: #2ca02c; fill-opacity: 0.4; stroke: #ffffff; stroke-opacity: 0.4; stroke-width: 0.339584"/>
    <path d="M 254.565294 295.527318 
L 252.541679 296.99756 
L 253.314631 299.376462 
L 255.815957 299.376462 
L 256.588909 296.99756 
z
" clip-path="url(#p7eca0322cd)" style="fill: #ff7f0e; fill-opacity: 0.4; stroke: #ffffff; stroke-opacity: 0.4; stroke-width: 0.339584"/>
    <path d="M 303.610999 289.851494 
L 301.592459 291.318049 
L 302.363473 293.690986 
L 304.858526 293.690986 
L 305.62954 291.318049 
z
" clip-path="url(#p7eca0322cd)" style="fill: #ff7f0e; fill-opacity: 0.4; stroke: #ffffff; stroke-opacity: 0.4; stroke-width: 0.339584"/>
    <path d="M 172.5889 186.208322 
L 174.765338 181.855446 
L 170.412462 181.855446 
z
" clip-path="url(#p7eca0322cd)" style="fill: #2ca02c; fill-opacity: 0.4; stroke: #ffffff; stroke-opacity: 0.4; stroke-width: 0.339584"/>
    <path d="M 151.569312 150.482296 
L 153.729868 146.161183 
L 149.408756 146.161183 
z
" clip-path="url(#p7eca0322cd)" style="fill: #2ca02c; fill-opacity: 0.4; stroke: #ffffff; stroke-opacity: 0.4; stroke-width: 0.339584"/>
    <path d="M 255.265947 284.926303 
L 258.363264 281.828986 
L 255.265947 278.731668 
L 252.168629 281.828986 
z
" clip-path="url(#p7eca0322cd)" style="fill: #1f77b4; fill-opacity: 0.4; stroke: #ffffff; stroke-opacity: 0.4; stroke-width: 0.339584"/>
    <path d="M 288.196635 275.090744 
L 291.197524 272.089855 
L 288.196635 269.088966 
L 285.195746 272.089855 
z
" clip-path="url(#p7eca0322cd)" style="fill: #1f77b4; fill-opacity: 0.4; stroke: #ffffff; stroke-opacity: 0.4; stroke-width: 0.339584"/>
    <path d="M 149.467353 86.367226 
L 151.628782 82.044368 
L 147.305924 82.044368 
z
" clip-path="url(#p7eca0322cd)" style="fill: #2ca02c; fill-opacity: 0.4; stroke: #ffffff; stroke-opacity: 0.4; stroke-width: 0.339584"/>
    <path d="M 302.910347 303.648938 
L 300.892132 305.115257 
L 301.663022 307.48781 
L 304.157672 307.48781 
L 304.928561 305.115257 
z
" clip-path="url(#p7eca0322cd)" style="fill: #ff7f0e; fill-opacity: 0.4; stroke: #ffffff; stroke-opacity: 0.4; stroke-width: 0.339584"/>
    <path d="M 216.029382 178.046437 
L 218.159877 173.785447 
L 213.898888 173.785447 
z
" clip-path="url(#p7eca0322cd)" style="fill: #2ca02c; fill-opacity: 0.4; stroke: #ffffff; stroke-opacity: 0.4; stroke-width: 0.339584"/>
    <path d="M 249.660723 301.808109 
L 251.784774 297.560007 
L 247.536673 297.560007 
z
" clip-path="url(#p7eca0322cd)" style="fill: #2ca02c; fill-opacity: 0.4; stroke: #ffffff; stroke-opacity: 0.4; stroke-width: 0.339584"/>
    <path d="M 259.469864 271.721903 
L 258.931718 273.378146 
L 257.190241 273.378146 
L 258.599126 274.401761 
L 258.06098 276.058004 
L 259.469864 275.034389 
L 260.878749 276.058004 
L 260.340603 274.401761 
L 261.749488 273.378146 
L 260.00801 273.378146 
z
" clip-path="url(#p7eca0322cd)" style="fill: #d62728; fill-opacity: 0.4; stroke: #ffffff; stroke-opacity: 0.4; stroke-width: 0.339584"/>
    <path d="M 245.456806 299.582546 
L 243.430582 301.054683 
L 244.20453 303.436652 
L 246.709081 303.436652 
L 247.483029 301.054683 
z
" clip-path="url(#p7eca0322cd)" style="fill: #ff7f0e; fill-opacity: 0.4; stroke: #ffffff; stroke-opacity: 0.4; stroke-width: 0.339584"/>
    <path d="M 197.812406 266.171682 
L 200.821769 263.162319 
L 197.812406 260.152956 
L 194.803043 263.162319 
z
" clip-path="url(#p7eca0322cd)" style="fill: #1f77b4; fill-opacity: 0.4; stroke: #ffffff; stroke-opacity: 0.4; stroke-width: 0.339584"/>
    <path d="M 268.578353 291.474547 
L 266.559683 292.941196 
L 267.330746 295.314284 
L 269.825959 295.314284 
L 270.597022 292.941196 
z
" clip-path="url(#p7eca0322cd)" style="fill: #ff7f0e; fill-opacity: 0.4; stroke: #ffffff; stroke-opacity: 0.4; stroke-width: 0.339584"/>
    <path d="M 250.361376 252.781788 
L 252.560555 248.38343 
L 248.162197 248.38343 
z
" clip-path="url(#p7eca0322cd)" style="fill: #2ca02c; fill-opacity: 0.4; stroke: #ffffff; stroke-opacity: 0.4; stroke-width: 0.339584"/>
    <path d="M 127.747112 158.216741 
L 129.931969 153.847027 
L 125.562255 153.847027 
z
" clip-path="url(#p7eca0322cd)" style="fill: #2ca02c; fill-opacity: 0.4; stroke: #ffffff; stroke-opacity: 0.4; stroke-width: 0.339584"/>
    <path d="M 177.493471 242.970265 
L 179.620258 238.716691 
L 175.366683 238.716691 
z
" clip-path="url(#p7eca0322cd)" style="fill: #2ca02c; fill-opacity: 0.4; stroke: #ffffff; stroke-opacity: 0.4; stroke-width: 0.339584"/>
    <path d="M 216.029382 275.18141 
L 219.120938 272.089855 
L 216.029382 268.9983 
L 212.937827 272.089855 
z
" clip-path="url(#p7eca0322cd)" style="fill: #1f77b4; fill-opacity: 0.4; stroke: #ffffff; stroke-opacity: 0.4; stroke-width: 0.339584"/>
    <path d="M 297.305123 286.161842 
L 295.250939 287.654294 
L 296.035567 290.069133 
L 298.574679 290.069133 
L 299.359307 287.654294 
z
" clip-path="url(#p7eca0322cd)" style="fill: #ff7f0e; fill-opacity: 0.4; stroke: #ffffff; stroke-opacity: 0.4; stroke-width: 0.339584"/>
    <path d="M 298.005776 279.648387 
C 298.288424 279.648387 298.559533 279.53609 298.759395 279.336227 
C 298.959257 279.136365 299.071554 278.865256 299.071554 278.582609 
C 299.071554 278.299961 298.959257 278.028852 298.759395 277.82899 
C 298.559533 277.629128 298.288424 277.516831 298.005776 277.516831 
C 297.723128 277.516831 297.452019 277.629128 297.252157 277.82899 
C 297.052295 278.028852 296.939998 278.299961 296.939998 278.582609 
C 296.939998 278.865256 297.052295 279.136365 297.252157 279.336227 
C 297.452019 279.53609 297.723128 279.648387 298.005776 279.648387 
z
" clip-path="url(#p7eca0322cd)" style="fill: #8c564b; fill-opacity: 0.4; stroke: #ffffff; stroke-opacity: 0.4; stroke-width: 0.339584"/>
    <path d="M 274.183576 260.215597 
L 273.70421 261.690934 
L 272.152949 261.690934 
L 273.407945 262.602742 
L 272.928579 264.07808 
L 274.183576 263.166271 
L 275.438573 264.07808 
L 274.959207 262.602742 
L 276.214204 261.690934 
L 274.662942 261.690934 
z
" clip-path="url(#p7eca0322cd)" style="fill: #d62728; fill-opacity: 0.4; stroke: #ffffff; stroke-opacity: 0.4; stroke-width: 0.339584"/>
    <path d="M 155.072577 57.966642 
L 157.239218 53.633358 
L 152.905935 53.633358 
z
" clip-path="url(#p7eca0322cd)" style="fill: #2ca02c; fill-opacity: 0.4; stroke: #ffffff; stroke-opacity: 0.4; stroke-width: 0.339584"/>
    <path d="M 180.296082 124.046469 
L 182.803421 119.031792 
L 177.788744 119.031792 
z
" clip-path="url(#p7eca0322cd)" style="fill: #2ca02c; fill-opacity: 0.4; stroke: #ffffff; stroke-opacity: 0.4; stroke-width: 0.339584"/>
    <path d="M 302.209694 280.101657 
L 300.18097 281.57561 
L 300.955874 283.960518 
L 303.463514 283.960518 
L 304.238417 281.57561 
z
" clip-path="url(#p7eca0322cd)" style="fill: #ff7f0e; fill-opacity: 0.4; stroke: #ffffff; stroke-opacity: 0.4; stroke-width: 0.339584"/>
    <path d="M 268.578353 251.973772 
L 271.592704 248.95942 
L 268.578353 245.945069 
L 265.564001 248.95942 
z
" clip-path="url(#p7eca0322cd)" style="fill: #1f77b4; fill-opacity: 0.4; stroke: #ffffff; stroke-opacity: 0.4; stroke-width: 0.339584"/>
    <path d="M 189.404571 240.75577 
L 192.969036 237.191304 
L 189.404571 233.626839 
L 185.840105 237.191304 
z
" clip-path="url(#p7eca0322cd)" style="fill: #1f77b4; fill-opacity: 0.4; stroke: #ffffff; stroke-opacity: 0.4; stroke-width: 0.339584"/>
    <path d="M 275.584882 260.220549 
L 275.106628 261.692464 
L 273.558964 261.692464 
L 274.81105 262.602158 
L 274.332796 264.074073 
L 275.584882 263.164379 
L 276.836968 264.074073 
L 276.358714 262.602158 
L 277.6108 261.692464 
L 276.063136 261.692464 
z
" clip-path="url(#p7eca0322cd)" style="fill: #d62728; fill-opacity: 0.4; stroke: #ffffff; stroke-opacity: 0.4; stroke-width: 0.339584"/>
    <path d="M 154.371924 212.695416 
C 154.655513 212.695416 154.927525 212.582744 155.128053 212.382216 
C 155.328581 212.181689 155.441252 211.909676 155.441252 211.626087 
C 155.441252 211.342498 155.328581 211.070485 155.128053 210.869957 
C 154.927525 210.66943 154.655513 210.556758 154.371924 210.556758 
C 154.088334 210.556758 153.816322 210.66943 153.615794 210.869957 
C 153.415266 211.070485 153.302595 211.342498 153.302595 211.626087 
C 153.302595 211.909676 153.415266 212.181689 153.615794 212.382216 
C 153.816322 212.582744 154.088334 212.695416 154.371924 212.695416 
z
" clip-path="url(#p7eca0322cd)" style="fill: #8c564b; fill-opacity: 0.4; stroke: #ffffff; stroke-opacity: 0.4; stroke-width: 0.339584"/>
    <path d="M 246.823663 249.066842 
L 251.096478 249.066842 
L 251.096478 244.794027 
L 246.823663 244.794027 
z
" clip-path="url(#p7eca0322cd)" style="fill: #9467bd; fill-opacity: 0.4; stroke: #ffffff; stroke-opacity: 0.4; stroke-width: 0.339584"/>
    <path d="M 282.500895 266.977982 
L 286.885845 266.977982 
L 286.885845 262.593032 
L 282.500895 262.593032 
z
" clip-path="url(#p7eca0322cd)" style="fill: #9467bd; fill-opacity: 0.4; stroke: #ffffff; stroke-opacity: 0.4; stroke-width: 0.339584"/>
    <path d="M 225.13787 242.938819 
L 228.450602 239.626087 
L 225.13787 236.313355 
L 221.825139 239.626087 
z
" clip-path="url(#p7eca0322cd)" style="fill: #1f77b4; fill-opacity: 0.4; stroke: #ffffff; stroke-opacity: 0.4; stroke-width: 0.339584"/>
    <path d="M 271.380964 299.910236 
L 269.280457 301.436344 
L 270.082779 303.905639 
L 272.679149 303.905639 
L 273.481472 301.436344 
z
" clip-path="url(#p7eca0322cd)" style="fill: #ff7f0e; fill-opacity: 0.4; stroke: #ffffff; stroke-opacity: 0.4; stroke-width: 0.339584"/>
    <path d="M 293.801858 305.249292 
L 291.761926 306.731389 
L 292.541111 309.129473 
L 295.062606 309.129473 
L 295.84179 306.731389 
z
" clip-path="url(#p7eca0322cd)" style="fill: #ff7f0e; fill-opacity: 0.4; stroke: #ffffff; stroke-opacity: 0.4; stroke-width: 0.339584"/>
    <path d="M 286.094676 283.212799 
L 289.101678 280.205797 
L 286.094676 277.198795 
L 283.087674 280.205797 
z
" clip-path="url(#p7eca0322cd)" style="fill: #1f77b4; fill-opacity: 0.4; stroke: #ffffff; stroke-opacity: 0.4; stroke-width: 0.339584"/>
    <path d="M 254.565294 299.54728 
L 252.50553 301.043786 
L 253.29229 303.465183 
L 255.838298 303.465183 
L 256.625057 301.043786 
z
" clip-path="url(#p7eca0322cd)" style="fill: #ff7f0e; fill-opacity: 0.4; stroke: #ffffff; stroke-opacity: 0.4; stroke-width: 0.339584"/>
    <path d="M 189.404571 187.802863 
L 191.552361 183.507282 
L 187.25678 183.507282 
z
" clip-path="url(#p7eca0322cd)" style="fill: #2ca02c; fill-opacity: 0.4; stroke: #ffffff; stroke-opacity: 0.4; stroke-width: 0.339584"/>
    <path d="M 240.552235 198.078169 
C 240.833557 198.078169 241.103394 197.966399 241.302318 197.767474 
C 241.501242 197.56855 241.613012 197.298713 241.613012 197.017391 
C 241.613012 196.73607 241.501242 196.466233 241.302318 196.267308 
C 241.103394 196.068384 240.833557 195.956614 240.552235 195.956614 
C 240.270914 195.956614 240.001076 196.068384 239.802152 196.267308 
C 239.603228 196.466233 239.491458 196.73607 239.491458 197.017391 
C 239.491458 197.298713 239.603228 197.56855 239.802152 197.767474 
C 240.001076 197.966399 240.270914 198.078169 240.552235 198.078169 
z
" clip-path="url(#p7eca0322cd)" style="fill: #8c564b; fill-opacity: 0.4; stroke: #ffffff; stroke-opacity: 0.4; stroke-width: 0.339584"/>
    <path d="M 204.118282 202.791113 
L 206.23983 198.548017 
L 201.996734 198.548017 
z
" clip-path="url(#p7eca0322cd)" style="fill: #2ca02c; fill-opacity: 0.4; stroke: #ffffff; stroke-opacity: 0.4; stroke-width: 0.339584"/>
    <path d="M 284.69337 260.582305 
L 287.794516 257.481159 
L 284.69337 254.380014 
L 281.592224 257.481159 
z
" clip-path="url(#p7eca0322cd)" style="fill: #1f77b4; fill-opacity: 0.4; stroke: #ffffff; stroke-opacity: 0.4; stroke-width: 0.339584"/>
    <path d="M 185.200653 167.521032 
L 187.356468 163.209403 
L 183.044838 163.209403 
z
" clip-path="url(#p7eca0322cd)" style="fill: #2ca02c; fill-opacity: 0.4; stroke: #ffffff; stroke-opacity: 0.4; stroke-width: 0.339584"/>
    <path d="M 261.571823 302.81794 
L 259.535154 304.297666 
L 260.313092 306.691914 
L 262.830554 306.691914 
L 263.608492 304.297666 
z
" clip-path="url(#p7eca0322cd)" style="fill: #ff7f0e; fill-opacity: 0.4; stroke: #ffffff; stroke-opacity: 0.4; stroke-width: 0.339584"/>
    <path d="M 246.858112 276.240172 
L 248.979443 271.997509 
L 244.73678 271.997509 
z
" clip-path="url(#p7eca0322cd)" style="fill: #2ca02c; fill-opacity: 0.4; stroke: #ffffff; stroke-opacity: 0.4; stroke-width: 0.339584"/>
    <path d="M 127.747112 178.051923 
L 129.883093 173.779961 
L 125.611131 173.779961 
z
" clip-path="url(#p7eca0322cd)" style="fill: #2ca02c; fill-opacity: 0.4; stroke: #ffffff; stroke-opacity: 0.4; stroke-width: 0.339584"/>
    <path d="M 302.209694 310.817973 
L 305.227666 307.8 
L 302.209694 304.782027 
L 299.191721 307.8 
z
" clip-path="url(#p7eca0322cd)" style="fill: #1f77b4; fill-opacity: 0.4; stroke: #ffffff; stroke-opacity: 0.4; stroke-width: 0.339584"/>
    <path d="M 294.502511 296.340782 
L 292.480675 297.809732 
L 293.252948 300.186543 
L 295.752075 300.186543 
L 296.524347 297.809732 
z
" clip-path="url(#p7eca0322cd)" style="fill: #ff7f0e; fill-opacity: 0.4; stroke: #ffffff; stroke-opacity: 0.4; stroke-width: 0.339584"/>
    <path d="M 176.092165 202.948185 
C 176.373606 202.948185 176.643558 202.836367 176.842567 202.637358 
C 177.041576 202.43835 177.153393 202.168398 177.153393 201.886957 
C 177.153393 201.605515 177.041576 201.335563 176.842567 201.136555 
C 176.643558 200.937546 176.373606 200.825728 176.092165 200.825728 
C 175.810724 200.825728 175.540772 200.937546 175.341763 201.136555 
C 175.142754 201.335563 175.030936 201.605515 175.030936 201.886957 
C 175.030936 202.168398 175.142754 202.43835 175.341763 202.637358 
C 175.540772 202.836367 175.810724 202.948185 176.092165 202.948185 
z
" clip-path="url(#p7eca0322cd)" style="fill: #8c564b; fill-opacity: 0.4; stroke: #ffffff; stroke-opacity: 0.4; stroke-width: 0.339584"/>
    <path d="M 107.428177 104.612578 
L 109.574088 100.320755 
L 105.282266 100.320755 
z
" clip-path="url(#p7eca0322cd)" style="fill: #2ca02c; fill-opacity: 0.4; stroke: #ffffff; stroke-opacity: 0.4; stroke-width: 0.339584"/>
    <path d="M 157.174535 267.840698 
L 159.418132 263.353505 
L 154.930939 263.353505 
z
" clip-path="url(#p7eca0322cd)" style="fill: #2ca02c; fill-opacity: 0.4; stroke: #ffffff; stroke-opacity: 0.4; stroke-width: 0.339584"/>
    <path d="M 306.413611 296.241444 
L 304.297299 297.779035 
L 305.105658 300.26691 
L 307.721564 300.26691 
L 308.529924 297.779035 
z
" clip-path="url(#p7eca0322cd)" style="fill: #ff7f0e; fill-opacity: 0.4; stroke: #ffffff; stroke-opacity: 0.4; stroke-width: 0.339584"/>
    <path d="M 271.380964 269.881198 
L 274.44767 266.814493 
L 271.380964 263.747787 
L 268.314259 266.814493 
z
" clip-path="url(#p7eca0322cd)" style="fill: #1f77b4; fill-opacity: 0.4; stroke: #ffffff; stroke-opacity: 0.4; stroke-width: 0.339584"/>
    <path d="M 200.615018 189.08467 
L 202.827224 184.660257 
L 198.402811 184.660257 
z
" clip-path="url(#p7eca0322cd)" style="fill: #2ca02c; fill-opacity: 0.4; stroke: #ffffff; stroke-opacity: 0.4; stroke-width: 0.339584"/>
    <path d="M 230.022036 272.58903 
L 234.266763 272.58903 
L 234.266763 268.344303 
L 230.022036 268.344303 
z
" clip-path="url(#p7eca0322cd)" style="fill: #9467bd; fill-opacity: 0.4; stroke: #ffffff; stroke-opacity: 0.4; stroke-width: 0.339584"/>
    <path d="M 90.612506 232.822633 
L 92.736589 228.574468 
L 88.488424 228.574468 
z
" clip-path="url(#p7eca0322cd)" style="fill: #2ca02c; fill-opacity: 0.4; stroke: #ffffff; stroke-opacity: 0.4; stroke-width: 0.339584"/>
    <path d="M 302.910347 280.091176 
L 300.871656 281.572372 
L 301.650366 283.968997 
L 304.170327 283.968997 
L 304.949037 281.572372 
z
" clip-path="url(#p7eca0322cd)" style="fill: #ff7f0e; fill-opacity: 0.4; stroke: #ffffff; stroke-opacity: 0.4; stroke-width: 0.339584"/>
    <path d="M 309.216223 295.514857 
L 307.180758 296.99371 
L 307.958236 299.386543 
L 310.47421 299.386543 
L 311.251688 296.99371 
z
" clip-path="url(#p7eca0322cd)" style="fill: #ff7f0e; fill-opacity: 0.4; stroke: #ffffff; stroke-opacity: 0.4; stroke-width: 0.339584"/>
    <path d="M 205.519588 246.743677 
L 208.579207 243.684058 
L 205.519588 240.624439 
L 202.45997 243.684058 
z
" clip-path="url(#p7eca0322cd)" style="fill: #1f77b4; fill-opacity: 0.4; stroke: #ffffff; stroke-opacity: 0.4; stroke-width: 0.339584"/>
    <path d="M 234.947012 211.407025 
L 237.974326 208.37971 
L 234.947012 205.352395 
L 231.919697 208.37971 
z
" clip-path="url(#p7eca0322cd)" style="fill: #1f77b4; fill-opacity: 0.4; stroke: #ffffff; stroke-opacity: 0.4; stroke-width: 0.339584"/>
    <path d="M 176.792818 157.055858 
L 179.034183 152.573128 
L 174.551453 152.573128 
z
" clip-path="url(#p7eca0322cd)" style="fill: #2ca02c; fill-opacity: 0.4; stroke: #ffffff; stroke-opacity: 0.4; stroke-width: 0.339584"/>
    <path d="M 251.062029 307.767926 
L 254.276332 304.553623 
L 251.062029 301.33932 
L 247.847726 304.553623 
z
" clip-path="url(#p7eca0322cd)" style="fill: #1f77b4; fill-opacity: 0.4; stroke: #ffffff; stroke-opacity: 0.4; stroke-width: 0.339584"/>
    <path d="M 158.575841 179.677066 
L 160.713776 175.401195 
L 156.437906 175.401195 
z
" clip-path="url(#p7eca0322cd)" style="fill: #2ca02c; fill-opacity: 0.4; stroke: #ffffff; stroke-opacity: 0.4; stroke-width: 0.339584"/>
    <path d="M 228.641135 212.280967 
C 228.92243 212.280967 229.192241 212.169207 229.391147 211.970302 
C 229.590052 211.771396 229.701812 211.501585 229.701812 211.22029 
C 229.701812 210.938995 229.590052 210.669184 229.391147 210.470278 
C 229.192241 210.271373 228.92243 210.159613 228.641135 210.159613 
C 228.35984 210.159613 228.090029 210.271373 227.891123 210.470278 
C 227.692218 210.669184 227.580458 210.938995 227.580458 211.22029 
C 227.580458 211.501585 227.692218 211.771396 227.891123 211.970302 
C 228.090029 212.169207 228.35984 212.280967 228.641135 212.280967 
z
" clip-path="url(#p7eca0322cd)" style="fill: #8c564b; fill-opacity: 0.4; stroke: #ffffff; stroke-opacity: 0.4; stroke-width: 0.339584"/>
    <path d="M 234.947012 285.791691 
L 234.470087 287.259512 
L 232.926729 287.259512 
L 234.175332 288.166676 
L 233.698408 289.634497 
L 234.947012 288.727334 
L 236.195615 289.634497 
L 235.718691 288.166676 
L 236.967295 287.259512 
L 235.423936 287.259512 
z
" clip-path="url(#p7eca0322cd)" style="fill: #d62728; fill-opacity: 0.4; stroke: #ffffff; stroke-opacity: 0.4; stroke-width: 0.339584"/>
    <path d="M 271.380964 282.758572 
L 273.527942 278.464617 
L 269.233987 278.464617 
z
" clip-path="url(#p7eca0322cd)" style="fill: #2ca02c; fill-opacity: 0.4; stroke: #ffffff; stroke-opacity: 0.4; stroke-width: 0.339584"/>
    <path d="M 282.591411 282.641022 
L 285.838231 279.394203 
L 282.591411 276.147384 
L 279.344592 279.394203 
z
" clip-path="url(#p7eca0322cd)" style="fill: #1f77b4; fill-opacity: 0.4; stroke: #ffffff; stroke-opacity: 0.4; stroke-width: 0.339584"/>
    <path d="M 218.131341 271.454905 
L 221.148565 268.437681 
L 218.131341 265.420457 
L 215.114117 268.437681 
z
" clip-path="url(#p7eca0322cd)" style="fill: #1f77b4; fill-opacity: 0.4; stroke: #ffffff; stroke-opacity: 0.4; stroke-width: 0.339584"/>
    <path d="M 157.174535 132.676205 
L 159.384074 128.257128 
L 154.964997 128.257128 
z
" clip-path="url(#p7eca0322cd)" style="fill: #2ca02c; fill-opacity: 0.4; stroke: #ffffff; stroke-opacity: 0.4; stroke-width: 0.339584"/>
    <path d="M 228.641135 297.867496 
L 226.527546 299.403108 
L 227.334865 301.887782 
L 229.947405 301.887782 
L 230.754724 299.403108 
z
" clip-path="url(#p7eca0322cd)" style="fill: #ff7f0e; fill-opacity: 0.4; stroke: #ffffff; stroke-opacity: 0.4; stroke-width: 0.339584"/>
    <path d="M 255.9666 291.757038 
L 258.996102 288.727536 
L 255.9666 285.698034 
L 252.937098 288.727536 
z
" clip-path="url(#p7eca0322cd)" style="fill: #1f77b4; fill-opacity: 0.4; stroke: #ffffff; stroke-opacity: 0.4; stroke-width: 0.339584"/>
    <path d="M 295.203164 281.592127 
L 293.048219 283.157787 
L 293.871335 285.691077 
L 296.534994 285.691077 
L 297.35811 283.157787 
z
" clip-path="url(#p7eca0322cd)" style="fill: #ff7f0e; fill-opacity: 0.4; stroke: #ffffff; stroke-opacity: 0.4; stroke-width: 0.339584"/>
    <path d="M 281.890758 277.844622 
L 281.269535 279.756553 
L 279.259212 279.756553 
L 280.885597 280.938191 
L 280.264373 282.850122 
L 281.890758 281.668483 
L 283.517144 282.850122 
L 282.89592 280.938191 
L 284.522305 279.756553 
L 282.511982 279.756553 
z
" clip-path="url(#p7eca0322cd)" style="fill: #d62728; fill-opacity: 0.4; stroke: #ffffff; stroke-opacity: 0.4; stroke-width: 0.339584"/>
    <path d="M 263.646711 280.305841 
L 267.904771 280.305841 
L 267.904771 276.047782 
L 263.646711 276.047782 
z
" clip-path="url(#p7eca0322cd)" style="fill: #9467bd; fill-opacity: 0.4; stroke: #ffffff; stroke-opacity: 0.4; stroke-width: 0.339584"/>
    <path d="M 230.743094 272.345206 
L 233.839025 269.249275 
L 230.743094 266.153344 
L 227.647163 269.249275 
z
" clip-path="url(#p7eca0322cd)" style="fill: #1f77b4; fill-opacity: 0.4; stroke: #ffffff; stroke-opacity: 0.4; stroke-width: 0.339584"/>
    <path d="M 182.398041 227.295643 
C 182.679385 227.295643 182.949243 227.183864 183.148182 226.984924 
C 183.347122 226.785984 183.458901 226.516126 183.458901 226.234783 
C 183.458901 225.953439 183.347122 225.683581 183.148182 225.484641 
C 182.949243 225.285702 182.679385 225.173923 182.398041 225.173923 
C 182.116698 225.173923 181.84684 225.285702 181.6479 225.484641 
C 181.44896 225.683581 181.337181 225.953439 181.337181 226.234783 
C 181.337181 226.516126 181.44896 226.785984 181.6479 226.984924 
C 181.84684 227.183864 182.116698 227.295643 182.398041 227.295643 
z
" clip-path="url(#p7eca0322cd)" style="fill: #8c564b; fill-opacity: 0.4; stroke: #ffffff; stroke-opacity: 0.4; stroke-width: 0.339584"/>
    <path d="M 249.570808 267.788975 
L 253.954556 267.788975 
L 253.954556 263.405227 
L 249.570808 263.405227 
z
" clip-path="url(#p7eca0322cd)" style="fill: #9467bd; fill-opacity: 0.4; stroke: #ffffff; stroke-opacity: 0.4; stroke-width: 0.339584"/>
    <path d="M 255.9666 294.8593 
L 259.257784 291.568116 
L 255.9666 288.276932 
L 252.675416 291.568116 
z
" clip-path="url(#p7eca0322cd)" style="fill: #1f77b4; fill-opacity: 0.4; stroke: #ffffff; stroke-opacity: 0.4; stroke-width: 0.339584"/>
    <path d="M 190.105224 208.219548 
L 193.191438 205.133333 
L 190.105224 202.047119 
L 187.019009 205.133333 
z
" clip-path="url(#p7eca0322cd)" style="fill: #1f77b4; fill-opacity: 0.4; stroke: #ffffff; stroke-opacity: 0.4; stroke-width: 0.339584"/>
    <path d="M 124.9445 135.87132 
L 127.102777 131.554767 
L 122.786224 131.554767 
z
" clip-path="url(#p7eca0322cd)" style="fill: #2ca02c; fill-opacity: 0.4; stroke: #ffffff; stroke-opacity: 0.4; stroke-width: 0.339584"/>
    <path d="M 143.161477 226.768486 
L 145.318369 222.454702 
L 141.004585 222.454702 
z
" clip-path="url(#p7eca0322cd)" style="fill: #2ca02c; fill-opacity: 0.4; stroke: #ffffff; stroke-opacity: 0.4; stroke-width: 0.339584"/>
   </g>
   <g id="matplotlib.axis_1">
    <g id="xtick_1">
     <g id="line2d_1">
      <defs>
       <path id="m6e93e4e69b" d="M 0 0 
L 0 3.5 
" style="stroke: #000000; stroke-width: 0.8"/>
      </defs>
      <g>
       <use xlink:href="#m6e93e4e69b" x="78.000753" y="320.4" style="stroke: #000000; stroke-width: 0.8"/>
      </g>
     </g>
     <g id="text_1">
      <!-- 50 -->
      <g transform="translate(75.896558 340.325691) rotate(-45) scale(0.1 -0.1)">
       <defs>
        <path id="ArialMT-35" d="M 266 1200 
L 856 1250 
Q 922 819 1161 601 
Q 1400 384 1738 384 
Q 2144 384 2425 690 
Q 2706 997 2706 1503 
Q 2706 1984 2436 2262 
Q 2166 2541 1728 2541 
Q 1456 2541 1237 2417 
Q 1019 2294 894 2097 
L 366 2166 
L 809 4519 
L 3088 4519 
L 3088 3981 
L 1259 3981 
L 1013 2750 
Q 1425 3038 1878 3038 
Q 2478 3038 2890 2622 
Q 3303 2206 3303 1553 
Q 3303 931 2941 478 
Q 2500 -78 1738 -78 
Q 1113 -78 717 272 
Q 322 622 266 1200 
z
" transform="scale(0.015625)"/>
        <path id="ArialMT-30" d="M 266 2259 
Q 266 3072 433 3567 
Q 600 4063 929 4331 
Q 1259 4600 1759 4600 
Q 2128 4600 2406 4451 
Q 2684 4303 2865 4023 
Q 3047 3744 3150 3342 
Q 3253 2941 3253 2259 
Q 3253 1453 3087 958 
Q 2922 463 2592 192 
Q 2263 -78 1759 -78 
Q 1097 -78 719 397 
Q 266 969 266 2259 
z
M 844 2259 
Q 844 1131 1108 757 
Q 1372 384 1759 384 
Q 2147 384 2411 759 
Q 2675 1134 2675 2259 
Q 2675 3391 2411 3762 
Q 2147 4134 1753 4134 
Q 1366 4134 1134 3806 
Q 844 3388 844 2259 
z
" transform="scale(0.015625)"/>
       </defs>
       <use xlink:href="#ArialMT-35"/>
       <use xlink:href="#ArialMT-30" x="55.615234"/>
      </g>
     </g>
    </g>
    <g id="xtick_2">
     <g id="line2d_2">
      <g>
       <use xlink:href="#m6e93e4e69b" x="113.0334" y="320.4" style="stroke: #000000; stroke-width: 0.8"/>
      </g>
     </g>
     <g id="text_2">
      <!-- 55 -->
      <g transform="translate(110.929205 340.325691) rotate(-45) scale(0.1 -0.1)">
       <use xlink:href="#ArialMT-35"/>
       <use xlink:href="#ArialMT-35" x="55.615234"/>
      </g>
     </g>
    </g>
    <g id="xtick_3">
     <g id="line2d_3">
      <g>
       <use xlink:href="#m6e93e4e69b" x="148.066047" y="320.4" style="stroke: #000000; stroke-width: 0.8"/>
      </g>
     </g>
     <g id="text_3">
      <!-- 60 -->
      <g transform="translate(145.961852 340.325691) rotate(-45) scale(0.1 -0.1)">
       <defs>
        <path id="ArialMT-36" d="M 3184 3459 
L 2625 3416 
Q 2550 3747 2413 3897 
Q 2184 4138 1850 4138 
Q 1581 4138 1378 3988 
Q 1113 3794 959 3422 
Q 806 3050 800 2363 
Q 1003 2672 1297 2822 
Q 1591 2972 1913 2972 
Q 2475 2972 2870 2558 
Q 3266 2144 3266 1488 
Q 3266 1056 3080 686 
Q 2894 316 2569 119 
Q 2244 -78 1831 -78 
Q 1128 -78 684 439 
Q 241 956 241 2144 
Q 241 3472 731 4075 
Q 1159 4600 1884 4600 
Q 2425 4600 2770 4297 
Q 3116 3994 3184 3459 
z
M 888 1484 
Q 888 1194 1011 928 
Q 1134 663 1356 523 
Q 1578 384 1822 384 
Q 2178 384 2434 671 
Q 2691 959 2691 1453 
Q 2691 1928 2437 2201 
Q 2184 2475 1800 2475 
Q 1419 2475 1153 2201 
Q 888 1928 888 1484 
z
" transform="scale(0.015625)"/>
       </defs>
       <use xlink:href="#ArialMT-36"/>
       <use xlink:href="#ArialMT-30" x="55.615234"/>
      </g>
     </g>
    </g>
    <g id="xtick_4">
     <g id="line2d_4">
      <g>
       <use xlink:href="#m6e93e4e69b" x="183.098694" y="320.4" style="stroke: #000000; stroke-width: 0.8"/>
      </g>
     </g>
     <g id="text_4">
      <!-- 65 -->
      <g transform="translate(180.994499 340.325691) rotate(-45) scale(0.1 -0.1)">
       <use xlink:href="#ArialMT-36"/>
       <use xlink:href="#ArialMT-35" x="55.615234"/>
      </g>
     </g>
    </g>
    <g id="xtick_5">
     <g id="line2d_5">
      <g>
       <use xlink:href="#m6e93e4e69b" x="218.131341" y="320.4" style="stroke: #000000; stroke-width: 0.8"/>
      </g>
     </g>
     <g id="text_5">
      <!-- 70 -->
      <g transform="translate(216.027146 340.325691) rotate(-45) scale(0.1 -0.1)">
       <defs>
        <path id="ArialMT-37" d="M 303 3981 
L 303 4522 
L 3269 4522 
L 3269 4084 
Q 2831 3619 2401 2847 
Q 1972 2075 1738 1259 
Q 1569 684 1522 0 
L 944 0 
Q 953 541 1156 1306 
Q 1359 2072 1739 2783 
Q 2119 3494 2547 3981 
L 303 3981 
z
" transform="scale(0.015625)"/>
       </defs>
       <use xlink:href="#ArialMT-37"/>
       <use xlink:href="#ArialMT-30" x="55.615234"/>
      </g>
     </g>
    </g>
    <g id="xtick_6">
     <g id="line2d_6">
      <g>
       <use xlink:href="#m6e93e4e69b" x="253.163988" y="320.4" style="stroke: #000000; stroke-width: 0.8"/>
      </g>
     </g>
     <g id="text_6">
      <!-- 75 -->
      <g transform="translate(251.059793 340.325691) rotate(-45) scale(0.1 -0.1)">
       <use xlink:href="#ArialMT-37"/>
       <use xlink:href="#ArialMT-35" x="55.615234"/>
      </g>
     </g>
    </g>
    <g id="xtick_7">
     <g id="line2d_7">
      <g>
       <use xlink:href="#m6e93e4e69b" x="288.196635" y="320.4" style="stroke: #000000; stroke-width: 0.8"/>
      </g>
     </g>
     <g id="text_7">
      <!-- 80 -->
      <g transform="translate(286.09244 340.325691) rotate(-45) scale(0.1 -0.1)">
       <defs>
        <path id="ArialMT-38" d="M 1131 2484 
Q 781 2613 612 2850 
Q 444 3088 444 3419 
Q 444 3919 803 4259 
Q 1163 4600 1759 4600 
Q 2359 4600 2725 4251 
Q 3091 3903 3091 3403 
Q 3091 3084 2923 2848 
Q 2756 2613 2416 2484 
Q 2838 2347 3058 2040 
Q 3278 1734 3278 1309 
Q 3278 722 2862 322 
Q 2447 -78 1769 -78 
Q 1091 -78 675 323 
Q 259 725 259 1325 
Q 259 1772 486 2073 
Q 713 2375 1131 2484 
z
M 1019 3438 
Q 1019 3113 1228 2906 
Q 1438 2700 1772 2700 
Q 2097 2700 2305 2904 
Q 2513 3109 2513 3406 
Q 2513 3716 2298 3927 
Q 2084 4138 1766 4138 
Q 1444 4138 1231 3931 
Q 1019 3725 1019 3438 
z
M 838 1322 
Q 838 1081 952 856 
Q 1066 631 1291 507 
Q 1516 384 1775 384 
Q 2178 384 2440 643 
Q 2703 903 2703 1303 
Q 2703 1709 2433 1975 
Q 2163 2241 1756 2241 
Q 1359 2241 1098 1978 
Q 838 1716 838 1322 
z
" transform="scale(0.015625)"/>
       </defs>
       <use xlink:href="#ArialMT-38"/>
       <use xlink:href="#ArialMT-30" x="55.615234"/>
      </g>
     </g>
    </g>
    <g id="xtick_8">
     <g id="line2d_8">
      <g>
       <use xlink:href="#m6e93e4e69b" x="323.229282" y="320.4" style="stroke: #000000; stroke-width: 0.8"/>
      </g>
     </g>
     <g id="text_8">
      <!-- 85 -->
      <g transform="translate(321.125087 340.325691) rotate(-45) scale(0.1 -0.1)">
       <use xlink:href="#ArialMT-38"/>
       <use xlink:href="#ArialMT-35" x="55.615234"/>
      </g>
     </g>
    </g>
    <g id="text_9">
     <!-- Life Expectancy  -->
     <g transform="translate(147.814844 353.010753) scale(0.1 -0.1)">
      <defs>
       <path id="ArialMT-4c" d="M 469 0 
L 469 4581 
L 1075 4581 
L 1075 541 
L 3331 541 
L 3331 0 
L 469 0 
z
" transform="scale(0.015625)"/>
       <path id="ArialMT-69" d="M 425 3934 
L 425 4581 
L 988 4581 
L 988 3934 
L 425 3934 
z
M 425 0 
L 425 3319 
L 988 3319 
L 988 0 
L 425 0 
z
" transform="scale(0.015625)"/>
       <path id="ArialMT-66" d="M 556 0 
L 556 2881 
L 59 2881 
L 59 3319 
L 556 3319 
L 556 3672 
Q 556 4006 616 4169 
Q 697 4388 901 4523 
Q 1106 4659 1475 4659 
Q 1713 4659 2000 4603 
L 1916 4113 
Q 1741 4144 1584 4144 
Q 1328 4144 1222 4034 
Q 1116 3925 1116 3625 
L 1116 3319 
L 1763 3319 
L 1763 2881 
L 1116 2881 
L 1116 0 
L 556 0 
z
" transform="scale(0.015625)"/>
       <path id="ArialMT-65" d="M 2694 1069 
L 3275 997 
Q 3138 488 2766 206 
Q 2394 -75 1816 -75 
Q 1088 -75 661 373 
Q 234 822 234 1631 
Q 234 2469 665 2931 
Q 1097 3394 1784 3394 
Q 2450 3394 2872 2941 
Q 3294 2488 3294 1666 
Q 3294 1616 3291 1516 
L 816 1516 
Q 847 969 1125 678 
Q 1403 388 1819 388 
Q 2128 388 2347 550 
Q 2566 713 2694 1069 
z
M 847 1978 
L 2700 1978 
Q 2663 2397 2488 2606 
Q 2219 2931 1791 2931 
Q 1403 2931 1139 2672 
Q 875 2413 847 1978 
z
" transform="scale(0.015625)"/>
       <path id="ArialMT-20" transform="scale(0.015625)"/>
       <path id="ArialMT-45" d="M 506 0 
L 506 4581 
L 3819 4581 
L 3819 4041 
L 1113 4041 
L 1113 2638 
L 3647 2638 
L 3647 2100 
L 1113 2100 
L 1113 541 
L 3925 541 
L 3925 0 
L 506 0 
z
" transform="scale(0.015625)"/>
       <path id="ArialMT-78" d="M 47 0 
L 1259 1725 
L 138 3319 
L 841 3319 
L 1350 2541 
Q 1494 2319 1581 2169 
Q 1719 2375 1834 2534 
L 2394 3319 
L 3066 3319 
L 1919 1756 
L 3153 0 
L 2463 0 
L 1781 1031 
L 1600 1309 
L 728 0 
L 47 0 
z
" transform="scale(0.015625)"/>
       <path id="ArialMT-70" d="M 422 -1272 
L 422 3319 
L 934 3319 
L 934 2888 
Q 1116 3141 1344 3267 
Q 1572 3394 1897 3394 
Q 2322 3394 2647 3175 
Q 2972 2956 3137 2557 
Q 3303 2159 3303 1684 
Q 3303 1175 3120 767 
Q 2938 359 2589 142 
Q 2241 -75 1856 -75 
Q 1575 -75 1351 44 
Q 1128 163 984 344 
L 984 -1272 
L 422 -1272 
z
M 931 1641 
Q 931 1000 1190 694 
Q 1450 388 1819 388 
Q 2194 388 2461 705 
Q 2728 1022 2728 1688 
Q 2728 2322 2467 2637 
Q 2206 2953 1844 2953 
Q 1484 2953 1207 2617 
Q 931 2281 931 1641 
z
" transform="scale(0.015625)"/>
       <path id="ArialMT-63" d="M 2588 1216 
L 3141 1144 
Q 3050 572 2676 248 
Q 2303 -75 1759 -75 
Q 1078 -75 664 370 
Q 250 816 250 1647 
Q 250 2184 428 2587 
Q 606 2991 970 3192 
Q 1334 3394 1763 3394 
Q 2303 3394 2647 3120 
Q 2991 2847 3088 2344 
L 2541 2259 
Q 2463 2594 2264 2762 
Q 2066 2931 1784 2931 
Q 1359 2931 1093 2626 
Q 828 2322 828 1663 
Q 828 994 1084 691 
Q 1341 388 1753 388 
Q 2084 388 2306 591 
Q 2528 794 2588 1216 
z
" transform="scale(0.015625)"/>
       <path id="ArialMT-74" d="M 1650 503 
L 1731 6 
Q 1494 -44 1306 -44 
Q 1000 -44 831 53 
Q 663 150 594 308 
Q 525 466 525 972 
L 525 2881 
L 113 2881 
L 113 3319 
L 525 3319 
L 525 4141 
L 1084 4478 
L 1084 3319 
L 1650 3319 
L 1650 2881 
L 1084 2881 
L 1084 941 
Q 1084 700 1114 631 
Q 1144 563 1211 522 
Q 1278 481 1403 481 
Q 1497 481 1650 503 
z
" transform="scale(0.015625)"/>
       <path id="ArialMT-61" d="M 2588 409 
Q 2275 144 1986 34 
Q 1697 -75 1366 -75 
Q 819 -75 525 192 
Q 231 459 231 875 
Q 231 1119 342 1320 
Q 453 1522 633 1644 
Q 813 1766 1038 1828 
Q 1203 1872 1538 1913 
Q 2219 1994 2541 2106 
Q 2544 2222 2544 2253 
Q 2544 2597 2384 2738 
Q 2169 2928 1744 2928 
Q 1347 2928 1158 2789 
Q 969 2650 878 2297 
L 328 2372 
Q 403 2725 575 2942 
Q 747 3159 1072 3276 
Q 1397 3394 1825 3394 
Q 2250 3394 2515 3294 
Q 2781 3194 2906 3042 
Q 3031 2891 3081 2659 
Q 3109 2516 3109 2141 
L 3109 1391 
Q 3109 606 3145 398 
Q 3181 191 3288 0 
L 2700 0 
Q 2613 175 2588 409 
z
M 2541 1666 
Q 2234 1541 1622 1453 
Q 1275 1403 1131 1340 
Q 988 1278 909 1158 
Q 831 1038 831 891 
Q 831 666 1001 516 
Q 1172 366 1500 366 
Q 1825 366 2078 508 
Q 2331 650 2450 897 
Q 2541 1088 2541 1459 
L 2541 1666 
z
" transform="scale(0.015625)"/>
       <path id="ArialMT-6e" d="M 422 0 
L 422 3319 
L 928 3319 
L 928 2847 
Q 1294 3394 1984 3394 
Q 2284 3394 2536 3286 
Q 2788 3178 2913 3003 
Q 3038 2828 3088 2588 
Q 3119 2431 3119 2041 
L 3119 0 
L 2556 0 
L 2556 2019 
Q 2556 2363 2490 2533 
Q 2425 2703 2258 2804 
Q 2091 2906 1866 2906 
Q 1506 2906 1245 2678 
Q 984 2450 984 1813 
L 984 0 
L 422 0 
z
" transform="scale(0.015625)"/>
       <path id="ArialMT-79" d="M 397 -1278 
L 334 -750 
Q 519 -800 656 -800 
Q 844 -800 956 -737 
Q 1069 -675 1141 -563 
Q 1194 -478 1313 -144 
Q 1328 -97 1363 -6 
L 103 3319 
L 709 3319 
L 1400 1397 
Q 1534 1031 1641 628 
Q 1738 1016 1872 1384 
L 2581 3319 
L 3144 3319 
L 1881 -56 
Q 1678 -603 1566 -809 
Q 1416 -1088 1222 -1217 
Q 1028 -1347 759 -1347 
Q 597 -1347 397 -1278 
z
" transform="scale(0.015625)"/>
      </defs>
      <use xlink:href="#ArialMT-4c"/>
      <use xlink:href="#ArialMT-69" x="55.615234"/>
      <use xlink:href="#ArialMT-66" x="77.832031"/>
      <use xlink:href="#ArialMT-65" x="105.615234"/>
      <use xlink:href="#ArialMT-20" x="161.230469"/>
      <use xlink:href="#ArialMT-45" x="189.013672"/>
      <use xlink:href="#ArialMT-78" x="255.712891"/>
      <use xlink:href="#ArialMT-70" x="305.712891"/>
      <use xlink:href="#ArialMT-65" x="361.328125"/>
      <use xlink:href="#ArialMT-63" x="416.943359"/>
      <use xlink:href="#ArialMT-74" x="466.943359"/>
      <use xlink:href="#ArialMT-61" x="494.726562"/>
      <use xlink:href="#ArialMT-6e" x="550.341797"/>
      <use xlink:href="#ArialMT-63" x="605.957031"/>
      <use xlink:href="#ArialMT-79" x="655.957031"/>
      <use xlink:href="#ArialMT-20" x="705.957031"/>
     </g>
    </g>
   </g>
   <g id="matplotlib.axis_2">
    <g id="ytick_1">
     <g id="line2d_9">
      <defs>
       <path id="m3203663f6a" d="M 0 0 
L -3.5 0 
" style="stroke: #000000; stroke-width: 0.8"/>
      </defs>
      <g>
       <use xlink:href="#m3203663f6a" x="45" y="319.973913" style="stroke: #000000; stroke-width: 0.8"/>
      </g>
     </g>
     <g id="text_10">
      <!-- 1 -->
      <g transform="translate(32.439062 323.552819) scale(0.1 -0.1)">
       <defs>
        <path id="ArialMT-31" d="M 2384 0 
L 1822 0 
L 1822 3584 
Q 1619 3391 1289 3197 
Q 959 3003 697 2906 
L 697 3450 
Q 1169 3672 1522 3987 
Q 1875 4303 2022 4600 
L 2384 4600 
L 2384 0 
z
" transform="scale(0.015625)"/>
       </defs>
       <use xlink:href="#ArialMT-31"/>
      </g>
     </g>
    </g>
    <g id="ytick_2">
     <g id="line2d_10">
      <g>
       <use xlink:href="#m3203663f6a" x="45" y="279.394203" style="stroke: #000000; stroke-width: 0.8"/>
      </g>
     </g>
     <g id="text_11">
      <!-- 2 -->
      <g transform="translate(32.439062 282.973109) scale(0.1 -0.1)">
       <defs>
        <path id="ArialMT-32" d="M 3222 541 
L 3222 0 
L 194 0 
Q 188 203 259 391 
Q 375 700 629 1000 
Q 884 1300 1366 1694 
Q 2113 2306 2375 2664 
Q 2638 3022 2638 3341 
Q 2638 3675 2398 3904 
Q 2159 4134 1775 4134 
Q 1369 4134 1125 3890 
Q 881 3647 878 3216 
L 300 3275 
Q 359 3922 746 4261 
Q 1134 4600 1788 4600 
Q 2447 4600 2831 4234 
Q 3216 3869 3216 3328 
Q 3216 3053 3103 2787 
Q 2991 2522 2730 2228 
Q 2469 1934 1863 1422 
Q 1356 997 1212 845 
Q 1069 694 975 541 
L 3222 541 
z
" transform="scale(0.015625)"/>
       </defs>
       <use xlink:href="#ArialMT-32"/>
      </g>
     </g>
    </g>
    <g id="ytick_3">
     <g id="line2d_11">
      <g>
       <use xlink:href="#m3203663f6a" x="45" y="238.814493" style="stroke: #000000; stroke-width: 0.8"/>
      </g>
     </g>
     <g id="text_12">
      <!-- 3 -->
      <g transform="translate(32.439062 242.393399) scale(0.1 -0.1)">
       <defs>
        <path id="ArialMT-33" d="M 269 1209 
L 831 1284 
Q 928 806 1161 595 
Q 1394 384 1728 384 
Q 2125 384 2398 659 
Q 2672 934 2672 1341 
Q 2672 1728 2419 1979 
Q 2166 2231 1775 2231 
Q 1616 2231 1378 2169 
L 1441 2663 
Q 1497 2656 1531 2656 
Q 1891 2656 2178 2843 
Q 2466 3031 2466 3422 
Q 2466 3731 2256 3934 
Q 2047 4138 1716 4138 
Q 1388 4138 1169 3931 
Q 950 3725 888 3313 
L 325 3413 
Q 428 3978 793 4289 
Q 1159 4600 1703 4600 
Q 2078 4600 2393 4439 
Q 2709 4278 2876 4000 
Q 3044 3722 3044 3409 
Q 3044 3113 2884 2869 
Q 2725 2625 2413 2481 
Q 2819 2388 3044 2092 
Q 3269 1797 3269 1353 
Q 3269 753 2831 336 
Q 2394 -81 1725 -81 
Q 1122 -81 723 278 
Q 325 638 269 1209 
z
" transform="scale(0.015625)"/>
       </defs>
       <use xlink:href="#ArialMT-33"/>
      </g>
     </g>
    </g>
    <g id="ytick_4">
     <g id="line2d_12">
      <g>
       <use xlink:href="#m3203663f6a" x="45" y="198.234783" style="stroke: #000000; stroke-width: 0.8"/>
      </g>
     </g>
     <g id="text_13">
      <!-- 4 -->
      <g transform="translate(32.439062 201.813689) scale(0.1 -0.1)">
       <defs>
        <path id="ArialMT-34" d="M 2069 0 
L 2069 1097 
L 81 1097 
L 81 1613 
L 2172 4581 
L 2631 4581 
L 2631 1613 
L 3250 1613 
L 3250 1097 
L 2631 1097 
L 2631 0 
L 2069 0 
z
M 2069 1613 
L 2069 3678 
L 634 1613 
L 2069 1613 
z
" transform="scale(0.015625)"/>
       </defs>
       <use xlink:href="#ArialMT-34"/>
      </g>
     </g>
    </g>
    <g id="ytick_5">
     <g id="line2d_13">
      <g>
       <use xlink:href="#m3203663f6a" x="45" y="157.655072" style="stroke: #000000; stroke-width: 0.8"/>
      </g>
     </g>
     <g id="text_14">
      <!-- 5 -->
      <g transform="translate(32.439062 161.233979) scale(0.1 -0.1)">
       <use xlink:href="#ArialMT-35"/>
      </g>
     </g>
    </g>
    <g id="ytick_6">
     <g id="line2d_14">
      <g>
       <use xlink:href="#m3203663f6a" x="45" y="117.075362" style="stroke: #000000; stroke-width: 0.8"/>
      </g>
     </g>
     <g id="text_15">
      <!-- 6 -->
      <g transform="translate(32.439062 120.654269) scale(0.1 -0.1)">
       <use xlink:href="#ArialMT-36"/>
      </g>
     </g>
    </g>
    <g id="ytick_7">
     <g id="line2d_15">
      <g>
       <use xlink:href="#m3203663f6a" x="45" y="76.495652" style="stroke: #000000; stroke-width: 0.8"/>
      </g>
     </g>
     <g id="text_16">
      <!-- 7 -->
      <g transform="translate(32.439062 80.074558) scale(0.1 -0.1)">
       <use xlink:href="#ArialMT-37"/>
      </g>
     </g>
    </g>
    <g id="text_17">
     <!-- fertility_rate -->
     <g transform="translate(26.334375 207.640625) rotate(-90) scale(0.1 -0.1)">
      <defs>
       <path id="ArialMT-72" d="M 416 0 
L 416 3319 
L 922 3319 
L 922 2816 
Q 1116 3169 1280 3281 
Q 1444 3394 1641 3394 
Q 1925 3394 2219 3213 
L 2025 2691 
Q 1819 2813 1613 2813 
Q 1428 2813 1281 2702 
Q 1134 2591 1072 2394 
Q 978 2094 978 1738 
L 978 0 
L 416 0 
z
" transform="scale(0.015625)"/>
       <path id="ArialMT-6c" d="M 409 0 
L 409 4581 
L 972 4581 
L 972 0 
L 409 0 
z
" transform="scale(0.015625)"/>
       <path id="ArialMT-5f" d="M -97 -1272 
L -97 -866 
L 3631 -866 
L 3631 -1272 
L -97 -1272 
z
" transform="scale(0.015625)"/>
      </defs>
      <use xlink:href="#ArialMT-66"/>
      <use xlink:href="#ArialMT-65" x="27.783203"/>
      <use xlink:href="#ArialMT-72" x="83.398438"/>
      <use xlink:href="#ArialMT-74" x="116.699219"/>
      <use xlink:href="#ArialMT-69" x="144.482422"/>
      <use xlink:href="#ArialMT-6c" x="166.699219"/>
      <use xlink:href="#ArialMT-69" x="188.916016"/>
      <use xlink:href="#ArialMT-74" x="211.132812"/>
      <use xlink:href="#ArialMT-79" x="238.916016"/>
      <use xlink:href="#ArialMT-5f" x="288.916016"/>
      <use xlink:href="#ArialMT-72" x="344.53125"/>
      <use xlink:href="#ArialMT-61" x="377.832031"/>
      <use xlink:href="#ArialMT-74" x="433.447266"/>
      <use xlink:href="#ArialMT-65" x="461.230469"/>
     </g>
    </g>
   </g>
   <g id="line2d_16"/>
   <g id="line2d_17"/>
   <g id="line2d_18"/>
   <g id="line2d_19"/>
   <g id="line2d_20"/>
   <g id="line2d_21"/>
   <g id="line2d_22"/>
   <g id="line2d_23"/>
   <g id="line2d_24"/>
   <g id="line2d_25"/>
   <g id="line2d_26"/>
   <g id="line2d_27"/>
   <g id="line2d_28"/>
   <g id="patch_3">
    <path d="M 45 320.4 
L 45 43.2 
" style="fill: none; stroke: #000000; stroke-width: 0.8; stroke-linejoin: miter; stroke-linecap: square"/>
   </g>
   <g id="patch_4">
    <path d="M 324 320.4 
L 324 43.2 
" style="fill: none; stroke: #000000; stroke-width: 0.8; stroke-linejoin: miter; stroke-linecap: square"/>
   </g>
   <g id="patch_5">
    <path d="M 45 320.4 
L 324 320.4 
" style="fill: none; stroke: #000000; stroke-width: 0.8; stroke-linejoin: miter; stroke-linecap: square"/>
   </g>
   <g id="patch_6">
    <path d="M 45 43.2 
L 324 43.2 
" style="fill: none; stroke: #000000; stroke-width: 0.8; stroke-linejoin: miter; stroke-linecap: square"/>
   </g>
   <g id="text_18">
    <!-- Zambia -->
    <g style="fill: #262626" transform="translate(124.9445 133.713043) scale(0.12 -0.12)">
     <defs>
      <path id="ArialMT-5a" d="M 128 0 
L 128 563 
L 2475 3497 
Q 2725 3809 2950 4041 
L 394 4041 
L 394 4581 
L 3675 4581 
L 3675 4041 
L 1103 863 
L 825 541 
L 3750 541 
L 3750 0 
L 128 0 
z
" transform="scale(0.015625)"/>
      <path id="ArialMT-6d" d="M 422 0 
L 422 3319 
L 925 3319 
L 925 2853 
Q 1081 3097 1340 3245 
Q 1600 3394 1931 3394 
Q 2300 3394 2536 3241 
Q 2772 3088 2869 2813 
Q 3263 3394 3894 3394 
Q 4388 3394 4653 3120 
Q 4919 2847 4919 2278 
L 4919 0 
L 4359 0 
L 4359 2091 
Q 4359 2428 4304 2576 
Q 4250 2725 4106 2815 
Q 3963 2906 3769 2906 
Q 3419 2906 3187 2673 
Q 2956 2441 2956 1928 
L 2956 0 
L 2394 0 
L 2394 2156 
Q 2394 2531 2256 2718 
Q 2119 2906 1806 2906 
Q 1569 2906 1367 2781 
Q 1166 2656 1075 2415 
Q 984 2175 984 1722 
L 984 0 
L 422 0 
z
" transform="scale(0.015625)"/>
      <path id="ArialMT-62" d="M 941 0 
L 419 0 
L 419 4581 
L 981 4581 
L 981 2947 
Q 1338 3394 1891 3394 
Q 2197 3394 2470 3270 
Q 2744 3147 2920 2923 
Q 3097 2700 3197 2384 
Q 3297 2069 3297 1709 
Q 3297 856 2875 390 
Q 2453 -75 1863 -75 
Q 1275 -75 941 416 
L 941 0 
z
M 934 1684 
Q 934 1088 1097 822 
Q 1363 388 1816 388 
Q 2184 388 2453 708 
Q 2722 1028 2722 1663 
Q 2722 2313 2464 2622 
Q 2206 2931 1841 2931 
Q 1472 2931 1203 2611 
Q 934 2291 934 1684 
z
" transform="scale(0.015625)"/>
     </defs>
     <use xlink:href="#ArialMT-5a"/>
     <use xlink:href="#ArialMT-61" x="61.083984"/>
     <use xlink:href="#ArialMT-6d" x="116.699219"/>
     <use xlink:href="#ArialMT-62" x="200"/>
     <use xlink:href="#ArialMT-69" x="255.615234"/>
     <use xlink:href="#ArialMT-61" x="277.832031"/>
    </g>
   </g>
   <g id="text_19">
    <!-- Australia -->
    <g style="fill: #262626" transform="translate(304.311652 284.263768) scale(0.12 -0.12)">
     <defs>
      <path id="ArialMT-41" d="M -9 0 
L 1750 4581 
L 2403 4581 
L 4278 0 
L 3588 0 
L 3053 1388 
L 1138 1388 
L 634 0 
L -9 0 
z
M 1313 1881 
L 2866 1881 
L 2388 3150 
Q 2169 3728 2063 4100 
Q 1975 3659 1816 3225 
L 1313 1881 
z
" transform="scale(0.015625)"/>
      <path id="ArialMT-75" d="M 2597 0 
L 2597 488 
Q 2209 -75 1544 -75 
Q 1250 -75 995 37 
Q 741 150 617 320 
Q 494 491 444 738 
Q 409 903 409 1263 
L 409 3319 
L 972 3319 
L 972 1478 
Q 972 1038 1006 884 
Q 1059 663 1231 536 
Q 1403 409 1656 409 
Q 1909 409 2131 539 
Q 2353 669 2445 892 
Q 2538 1116 2538 1541 
L 2538 3319 
L 3100 3319 
L 3100 0 
L 2597 0 
z
" transform="scale(0.015625)"/>
      <path id="ArialMT-73" d="M 197 991 
L 753 1078 
Q 800 744 1014 566 
Q 1228 388 1613 388 
Q 2000 388 2187 545 
Q 2375 703 2375 916 
Q 2375 1106 2209 1216 
Q 2094 1291 1634 1406 
Q 1016 1563 777 1677 
Q 538 1791 414 1992 
Q 291 2194 291 2438 
Q 291 2659 392 2848 
Q 494 3038 669 3163 
Q 800 3259 1026 3326 
Q 1253 3394 1513 3394 
Q 1903 3394 2198 3281 
Q 2494 3169 2634 2976 
Q 2775 2784 2828 2463 
L 2278 2388 
Q 2241 2644 2061 2787 
Q 1881 2931 1553 2931 
Q 1166 2931 1000 2803 
Q 834 2675 834 2503 
Q 834 2394 903 2306 
Q 972 2216 1119 2156 
Q 1203 2125 1616 2013 
Q 2213 1853 2448 1751 
Q 2684 1650 2818 1456 
Q 2953 1263 2953 975 
Q 2953 694 2789 445 
Q 2625 197 2315 61 
Q 2006 -75 1616 -75 
Q 969 -75 630 194 
Q 291 463 197 991 
z
" transform="scale(0.015625)"/>
     </defs>
     <use xlink:href="#ArialMT-41"/>
     <use xlink:href="#ArialMT-75" x="66.699219"/>
     <use xlink:href="#ArialMT-73" x="122.314453"/>
     <use xlink:href="#ArialMT-74" x="172.314453"/>
     <use xlink:href="#ArialMT-72" x="200.097656"/>
     <use xlink:href="#ArialMT-61" x="233.398438"/>
     <use xlink:href="#ArialMT-6c" x="289.013672"/>
     <use xlink:href="#ArialMT-69" x="311.230469"/>
     <use xlink:href="#ArialMT-61" x="333.447266"/>
    </g>
   </g>
   <g id="text_20">
    <!-- China -->
    <g style="fill: #262626" transform="translate(261.571823 296.843478) scale(0.12 -0.12)">
     <defs>
      <path id="ArialMT-43" d="M 3763 1606 
L 4369 1453 
Q 4178 706 3683 314 
Q 3188 -78 2472 -78 
Q 1731 -78 1267 223 
Q 803 525 561 1097 
Q 319 1669 319 2325 
Q 319 3041 592 3573 
Q 866 4106 1370 4382 
Q 1875 4659 2481 4659 
Q 3169 4659 3637 4309 
Q 4106 3959 4291 3325 
L 3694 3184 
Q 3534 3684 3231 3912 
Q 2928 4141 2469 4141 
Q 1941 4141 1586 3887 
Q 1231 3634 1087 3207 
Q 944 2781 944 2328 
Q 944 1744 1114 1308 
Q 1284 872 1643 656 
Q 2003 441 2422 441 
Q 2931 441 3284 734 
Q 3638 1028 3763 1606 
z
" transform="scale(0.015625)"/>
      <path id="ArialMT-68" d="M 422 0 
L 422 4581 
L 984 4581 
L 984 2938 
Q 1378 3394 1978 3394 
Q 2347 3394 2619 3248 
Q 2891 3103 3008 2847 
Q 3125 2591 3125 2103 
L 3125 0 
L 2563 0 
L 2563 2103 
Q 2563 2525 2380 2717 
Q 2197 2909 1863 2909 
Q 1613 2909 1392 2779 
Q 1172 2650 1078 2428 
Q 984 2206 984 1816 
L 984 0 
L 422 0 
z
" transform="scale(0.015625)"/>
     </defs>
     <use xlink:href="#ArialMT-43"/>
     <use xlink:href="#ArialMT-68" x="72.216797"/>
     <use xlink:href="#ArialMT-69" x="127.832031"/>
     <use xlink:href="#ArialMT-6e" x="150.048828"/>
     <use xlink:href="#ArialMT-61" x="205.664062"/>
    </g>
   </g>
   <g id="text_21">
    <!-- Life Expectancy vs Fertility rate 2015 -->
    <g transform="translate(86.460938 37.2) scale(0.12 -0.12)">
     <defs>
      <path id="ArialMT-76" d="M 1344 0 
L 81 3319 
L 675 3319 
L 1388 1331 
Q 1503 1009 1600 663 
Q 1675 925 1809 1294 
L 2547 3319 
L 3125 3319 
L 1869 0 
L 1344 0 
z
" transform="scale(0.015625)"/>
      <path id="ArialMT-46" d="M 525 0 
L 525 4581 
L 3616 4581 
L 3616 4041 
L 1131 4041 
L 1131 2622 
L 3281 2622 
L 3281 2081 
L 1131 2081 
L 1131 0 
L 525 0 
z
" transform="scale(0.015625)"/>
     </defs>
     <use xlink:href="#ArialMT-4c"/>
     <use xlink:href="#ArialMT-69" x="55.615234"/>
     <use xlink:href="#ArialMT-66" x="77.832031"/>
     <use xlink:href="#ArialMT-65" x="105.615234"/>
     <use xlink:href="#ArialMT-20" x="161.230469"/>
     <use xlink:href="#ArialMT-45" x="189.013672"/>
     <use xlink:href="#ArialMT-78" x="255.712891"/>
     <use xlink:href="#ArialMT-70" x="305.712891"/>
     <use xlink:href="#ArialMT-65" x="361.328125"/>
     <use xlink:href="#ArialMT-63" x="416.943359"/>
     <use xlink:href="#ArialMT-74" x="466.943359"/>
     <use xlink:href="#ArialMT-61" x="494.726562"/>
     <use xlink:href="#ArialMT-6e" x="550.341797"/>
     <use xlink:href="#ArialMT-63" x="605.957031"/>
     <use xlink:href="#ArialMT-79" x="655.957031"/>
     <use xlink:href="#ArialMT-20" x="705.957031"/>
     <use xlink:href="#ArialMT-76" x="733.740234"/>
     <use xlink:href="#ArialMT-73" x="783.740234"/>
     <use xlink:href="#ArialMT-20" x="833.740234"/>
     <use xlink:href="#ArialMT-46" x="861.523438"/>
     <use xlink:href="#ArialMT-65" x="922.607422"/>
     <use xlink:href="#ArialMT-72" x="978.222656"/>
     <use xlink:href="#ArialMT-74" x="1011.523438"/>
     <use xlink:href="#ArialMT-69" x="1039.306641"/>
     <use xlink:href="#ArialMT-6c" x="1061.523438"/>
     <use xlink:href="#ArialMT-69" x="1083.740234"/>
     <use xlink:href="#ArialMT-74" x="1105.957031"/>
     <use xlink:href="#ArialMT-79" x="1133.740234"/>
     <use xlink:href="#ArialMT-20" x="1183.740234"/>
     <use xlink:href="#ArialMT-72" x="1211.523438"/>
     <use xlink:href="#ArialMT-61" x="1244.824219"/>
     <use xlink:href="#ArialMT-74" x="1300.439453"/>
     <use xlink:href="#ArialMT-65" x="1328.222656"/>
     <use xlink:href="#ArialMT-20" x="1383.837891"/>
     <use xlink:href="#ArialMT-32" x="1411.621094"/>
     <use xlink:href="#ArialMT-30" x="1467.236328"/>
     <use xlink:href="#ArialMT-31" x="1522.851562"/>
     <use xlink:href="#ArialMT-35" x="1578.466797"/>
    </g>
   </g>
   <g id="legend_1">
    <g id="line2d_29"/>
    <g id="text_22">
     <!-- continent -->
     <g style="fill: #262626" transform="translate(373.27375 60.973594) scale(0.11 -0.11)">
      <defs>
       <path id="ArialMT-6f" d="M 213 1659 
Q 213 2581 725 3025 
Q 1153 3394 1769 3394 
Q 2453 3394 2887 2945 
Q 3322 2497 3322 1706 
Q 3322 1066 3130 698 
Q 2938 331 2570 128 
Q 2203 -75 1769 -75 
Q 1072 -75 642 372 
Q 213 819 213 1659 
z
M 791 1659 
Q 791 1022 1069 705 
Q 1347 388 1769 388 
Q 2188 388 2466 706 
Q 2744 1025 2744 1678 
Q 2744 2294 2464 2611 
Q 2184 2928 1769 2928 
Q 1347 2928 1069 2612 
Q 791 2297 791 1659 
z
" transform="scale(0.015625)"/>
      </defs>
      <use xlink:href="#ArialMT-63"/>
      <use xlink:href="#ArialMT-6f" x="50"/>
      <use xlink:href="#ArialMT-6e" x="105.615234"/>
      <use xlink:href="#ArialMT-74" x="161.230469"/>
      <use xlink:href="#ArialMT-69" x="189.013672"/>
      <use xlink:href="#ArialMT-6e" x="211.230469"/>
      <use xlink:href="#ArialMT-65" x="266.845703"/>
      <use xlink:href="#ArialMT-6e" x="322.460938"/>
      <use xlink:href="#ArialMT-74" x="378.076172"/>
     </g>
    </g>
    <g id="line2d_30">
     <defs>
      <path id="m73b6439157" d="M -0 4.242641 
L 4.242641 0 
L 0 -4.242641 
L -4.242641 -0 
z
" style="stroke: #ffffff; stroke-opacity: 0.4; stroke-width: 0.339584; stroke-linejoin: miter"/>
     </defs>
     <g>
      <use xlink:href="#m73b6439157" x="353.47375" y="72.683437" style="fill: #1f77b4; fill-opacity: 0.4; stroke: #ffffff; stroke-opacity: 0.4; stroke-width: 0.339584; stroke-linejoin: miter"/>
     </g>
    </g>
    <g id="text_23">
     <!-- Asia -->
     <g style="fill: #262626" transform="translate(373.27375 76.533437) scale(0.11 -0.11)">
      <use xlink:href="#ArialMT-41"/>
      <use xlink:href="#ArialMT-73" x="66.699219"/>
      <use xlink:href="#ArialMT-69" x="116.699219"/>
      <use xlink:href="#ArialMT-61" x="138.916016"/>
     </g>
    </g>
    <g id="line2d_31">
     <defs>
      <path id="m90cd02a106" d="M 0 -3 
L -2.85317 -0.927051 
L -1.763356 2.427051 
L 1.763356 2.427051 
L 2.85317 -0.927051 
z
" style="stroke: #ffffff; stroke-opacity: 0.4; stroke-width: 0.339584; stroke-linejoin: miter"/>
     </defs>
     <g>
      <use xlink:href="#m90cd02a106" x="353.47375" y="88.243281" style="fill: #ff7f0e; fill-opacity: 0.4; stroke: #ffffff; stroke-opacity: 0.4; stroke-width: 0.339584; stroke-linejoin: miter"/>
     </g>
    </g>
    <g id="text_24">
     <!-- Europe -->
     <g style="fill: #262626" transform="translate(373.27375 92.093281) scale(0.11 -0.11)">
      <use xlink:href="#ArialMT-45"/>
      <use xlink:href="#ArialMT-75" x="66.699219"/>
      <use xlink:href="#ArialMT-72" x="122.314453"/>
      <use xlink:href="#ArialMT-6f" x="155.615234"/>
      <use xlink:href="#ArialMT-70" x="211.230469"/>
      <use xlink:href="#ArialMT-65" x="266.845703"/>
     </g>
    </g>
    <g id="line2d_32">
     <defs>
      <path id="m8e0dbe84f6" d="M -0 3 
L 3 -3 
L -3 -3 
z
" style="stroke: #ffffff; stroke-opacity: 0.4; stroke-width: 0.339584; stroke-linejoin: miter"/>
     </defs>
     <g>
      <use xlink:href="#m8e0dbe84f6" x="353.47375" y="103.803125" style="fill: #2ca02c; fill-opacity: 0.4; stroke: #ffffff; stroke-opacity: 0.4; stroke-width: 0.339584; stroke-linejoin: miter"/>
     </g>
    </g>
    <g id="text_25">
     <!-- Africa -->
     <g style="fill: #262626" transform="translate(373.27375 107.653125) scale(0.11 -0.11)">
      <use xlink:href="#ArialMT-41"/>
      <use xlink:href="#ArialMT-66" x="66.699219"/>
      <use xlink:href="#ArialMT-72" x="94.482422"/>
      <use xlink:href="#ArialMT-69" x="127.783203"/>
      <use xlink:href="#ArialMT-63" x="150"/>
      <use xlink:href="#ArialMT-61" x="200"/>
     </g>
    </g>
    <g id="line2d_33">
     <defs>
      <path id="m23db54fcca" d="M 0 -3 
L -0.673542 -0.927051 
L -2.85317 -0.927051 
L -1.089814 0.354102 
L -1.763356 2.427051 
L -0 1.145898 
L 1.763356 2.427051 
L 1.089814 0.354102 
L 2.85317 -0.927051 
L 0.673542 -0.927051 
z
" style="stroke: #ffffff; stroke-opacity: 0.4; stroke-width: 0.339584; stroke-linejoin: bevel"/>
     </defs>
     <g>
      <use xlink:href="#m23db54fcca" x="353.47375" y="119.362969" style="fill: #d62728; fill-opacity: 0.4; stroke: #ffffff; stroke-opacity: 0.4; stroke-width: 0.339584; stroke-linejoin: bevel"/>
     </g>
    </g>
    <g id="text_26">
     <!-- North America -->
     <g style="fill: #262626" transform="translate(373.27375 123.212969) scale(0.11 -0.11)">
      <defs>
       <path id="ArialMT-4e" d="M 488 0 
L 488 4581 
L 1109 4581 
L 3516 984 
L 3516 4581 
L 4097 4581 
L 4097 0 
L 3475 0 
L 1069 3600 
L 1069 0 
L 488 0 
z
" transform="scale(0.015625)"/>
      </defs>
      <use xlink:href="#ArialMT-4e"/>
      <use xlink:href="#ArialMT-6f" x="72.216797"/>
      <use xlink:href="#ArialMT-72" x="127.832031"/>
      <use xlink:href="#ArialMT-74" x="161.132812"/>
      <use xlink:href="#ArialMT-68" x="188.916016"/>
      <use xlink:href="#ArialMT-20" x="244.53125"/>
      <use xlink:href="#ArialMT-41" x="266.814453"/>
      <use xlink:href="#ArialMT-6d" x="333.513672"/>
      <use xlink:href="#ArialMT-65" x="416.814453"/>
      <use xlink:href="#ArialMT-72" x="472.429688"/>
      <use xlink:href="#ArialMT-69" x="505.730469"/>
      <use xlink:href="#ArialMT-63" x="527.947266"/>
      <use xlink:href="#ArialMT-61" x="577.947266"/>
     </g>
    </g>
    <g id="line2d_34">
     <defs>
      <path id="m8a45481562" d="M -3 3 
L 3 3 
L 3 -3 
L -3 -3 
z
" style="stroke: #ffffff; stroke-opacity: 0.4; stroke-width: 0.339584; stroke-linejoin: miter"/>
     </defs>
     <g>
      <use xlink:href="#m8a45481562" x="353.47375" y="134.922812" style="fill: #9467bd; fill-opacity: 0.4; stroke: #ffffff; stroke-opacity: 0.4; stroke-width: 0.339584; stroke-linejoin: miter"/>
     </g>
    </g>
    <g id="text_27">
     <!-- South America -->
     <g style="fill: #262626" transform="translate(373.27375 138.772812) scale(0.11 -0.11)">
      <defs>
       <path id="ArialMT-53" d="M 288 1472 
L 859 1522 
Q 900 1178 1048 958 
Q 1197 738 1509 602 
Q 1822 466 2213 466 
Q 2559 466 2825 569 
Q 3091 672 3220 851 
Q 3350 1031 3350 1244 
Q 3350 1459 3225 1620 
Q 3100 1781 2813 1891 
Q 2628 1963 1997 2114 
Q 1366 2266 1113 2400 
Q 784 2572 623 2826 
Q 463 3081 463 3397 
Q 463 3744 659 4045 
Q 856 4347 1234 4503 
Q 1613 4659 2075 4659 
Q 2584 4659 2973 4495 
Q 3363 4331 3572 4012 
Q 3781 3694 3797 3291 
L 3216 3247 
Q 3169 3681 2898 3903 
Q 2628 4125 2100 4125 
Q 1550 4125 1298 3923 
Q 1047 3722 1047 3438 
Q 1047 3191 1225 3031 
Q 1400 2872 2139 2705 
Q 2878 2538 3153 2413 
Q 3553 2228 3743 1945 
Q 3934 1663 3934 1294 
Q 3934 928 3725 604 
Q 3516 281 3123 101 
Q 2731 -78 2241 -78 
Q 1619 -78 1198 103 
Q 778 284 539 648 
Q 300 1013 288 1472 
z
" transform="scale(0.015625)"/>
      </defs>
      <use xlink:href="#ArialMT-53"/>
      <use xlink:href="#ArialMT-6f" x="66.699219"/>
      <use xlink:href="#ArialMT-75" x="122.314453"/>
      <use xlink:href="#ArialMT-74" x="177.929688"/>
      <use xlink:href="#ArialMT-68" x="205.712891"/>
      <use xlink:href="#ArialMT-20" x="261.328125"/>
      <use xlink:href="#ArialMT-41" x="283.611328"/>
      <use xlink:href="#ArialMT-6d" x="350.310547"/>
      <use xlink:href="#ArialMT-65" x="433.611328"/>
      <use xlink:href="#ArialMT-72" x="489.226562"/>
      <use xlink:href="#ArialMT-69" x="522.527344"/>
      <use xlink:href="#ArialMT-63" x="544.744141"/>
      <use xlink:href="#ArialMT-61" x="594.744141"/>
     </g>
    </g>
    <g id="line2d_35">
     <defs>
      <path id="m6114f60a94" d="M 0 1.5 
C 0.397805 1.5 0.77937 1.341951 1.06066 1.06066 
C 1.341951 0.77937 1.5 0.397805 1.5 0 
C 1.5 -0.397805 1.341951 -0.77937 1.06066 -1.06066 
C 0.77937 -1.341951 0.397805 -1.5 0 -1.5 
C -0.397805 -1.5 -0.77937 -1.341951 -1.06066 -1.06066 
C -1.341951 -0.77937 -1.5 -0.397805 -1.5 0 
C -1.5 0.397805 -1.341951 0.77937 -1.06066 1.06066 
C -0.77937 1.341951 -0.397805 1.5 0 1.5 
z
" style="stroke: #ffffff; stroke-opacity: 0.4; stroke-width: 0.339584"/>
     </defs>
     <g>
      <use xlink:href="#m6114f60a94" x="353.47375" y="150.482656" style="fill: #8c564b; fill-opacity: 0.4; stroke: #ffffff; stroke-opacity: 0.4; stroke-width: 0.339584"/>
     </g>
    </g>
    <g id="text_28">
     <!-- Australia and Oceania -->
     <g style="fill: #262626" transform="translate(373.27375 154.332656) scale(0.11 -0.11)">
      <defs>
       <path id="ArialMT-64" d="M 2575 0 
L 2575 419 
Q 2259 -75 1647 -75 
Q 1250 -75 917 144 
Q 584 363 401 755 
Q 219 1147 219 1656 
Q 219 2153 384 2558 
Q 550 2963 881 3178 
Q 1213 3394 1622 3394 
Q 1922 3394 2156 3267 
Q 2391 3141 2538 2938 
L 2538 4581 
L 3097 4581 
L 3097 0 
L 2575 0 
z
M 797 1656 
Q 797 1019 1065 703 
Q 1334 388 1700 388 
Q 2069 388 2326 689 
Q 2584 991 2584 1609 
Q 2584 2291 2321 2609 
Q 2059 2928 1675 2928 
Q 1300 2928 1048 2622 
Q 797 2316 797 1656 
z
" transform="scale(0.015625)"/>
       <path id="ArialMT-4f" d="M 309 2231 
Q 309 3372 921 4017 
Q 1534 4663 2503 4663 
Q 3138 4663 3647 4359 
Q 4156 4056 4423 3514 
Q 4691 2972 4691 2284 
Q 4691 1588 4409 1038 
Q 4128 488 3612 205 
Q 3097 -78 2500 -78 
Q 1853 -78 1343 234 
Q 834 547 571 1087 
Q 309 1628 309 2231 
z
M 934 2222 
Q 934 1394 1379 917 
Q 1825 441 2497 441 
Q 3181 441 3623 922 
Q 4066 1403 4066 2288 
Q 4066 2847 3877 3264 
Q 3688 3681 3323 3911 
Q 2959 4141 2506 4141 
Q 1863 4141 1398 3698 
Q 934 3256 934 2222 
z
" transform="scale(0.015625)"/>
      </defs>
      <use xlink:href="#ArialMT-41"/>
      <use xlink:href="#ArialMT-75" x="66.699219"/>
      <use xlink:href="#ArialMT-73" x="122.314453"/>
      <use xlink:href="#ArialMT-74" x="172.314453"/>
      <use xlink:href="#ArialMT-72" x="200.097656"/>
      <use xlink:href="#ArialMT-61" x="233.398438"/>
      <use xlink:href="#ArialMT-6c" x="289.013672"/>
      <use xlink:href="#ArialMT-69" x="311.230469"/>
      <use xlink:href="#ArialMT-61" x="333.447266"/>
      <use xlink:href="#ArialMT-20" x="389.0625"/>
      <use xlink:href="#ArialMT-61" x="416.845703"/>
      <use xlink:href="#ArialMT-6e" x="472.460938"/>
      <use xlink:href="#ArialMT-64" x="528.076172"/>
      <use xlink:href="#ArialMT-20" x="583.691406"/>
      <use xlink:href="#ArialMT-4f" x="611.474609"/>
      <use xlink:href="#ArialMT-63" x="689.257812"/>
      <use xlink:href="#ArialMT-65" x="739.257812"/>
      <use xlink:href="#ArialMT-61" x="794.873047"/>
      <use xlink:href="#ArialMT-6e" x="850.488281"/>
      <use xlink:href="#ArialMT-69" x="906.103516"/>
      <use xlink:href="#ArialMT-61" x="928.320312"/>
     </g>
    </g>
    <g id="line2d_36"/>
    <g id="text_29">
     <!-- total population -->
     <g style="fill: #262626" transform="translate(373.27375 169.8925) scale(0.11 -0.11)">
      <use xlink:href="#ArialMT-74"/>
      <use xlink:href="#ArialMT-6f" x="27.783203"/>
      <use xlink:href="#ArialMT-74" x="83.398438"/>
      <use xlink:href="#ArialMT-61" x="111.181641"/>
      <use xlink:href="#ArialMT-6c" x="166.796875"/>
      <use xlink:href="#ArialMT-20" x="189.013672"/>
      <use xlink:href="#ArialMT-70" x="216.796875"/>
      <use xlink:href="#ArialMT-6f" x="272.412109"/>
      <use xlink:href="#ArialMT-70" x="328.027344"/>
      <use xlink:href="#ArialMT-75" x="383.642578"/>
      <use xlink:href="#ArialMT-6c" x="439.257812"/>
      <use xlink:href="#ArialMT-61" x="461.474609"/>
      <use xlink:href="#ArialMT-74" x="517.089844"/>
      <use xlink:href="#ArialMT-69" x="544.873047"/>
      <use xlink:href="#ArialMT-6f" x="567.089844"/>
      <use xlink:href="#ArialMT-6e" x="622.705078"/>
     </g>
    </g>
    <g id="line2d_37">
     <defs>
      <path id="md7a84480ff" d="M -0 3.72879 
L 3.72879 0 
L 0 -3.72879 
L -3.72879 -0 
z
" style="stroke: #ffffff; stroke-opacity: 0.4; stroke-width: 0.339584; stroke-linejoin: miter"/>
     </defs>
     <g>
      <use xlink:href="#md7a84480ff" x="353.47375" y="181.602344" style="fill: #333333; fill-opacity: 0.4; stroke: #ffffff; stroke-opacity: 0.4; stroke-width: 0.339584; stroke-linejoin: miter"/>
     </g>
    </g>
    <g id="text_30">
     <!-- 250000000 -->
     <g style="fill: #262626" transform="translate(373.27375 185.452344) scale(0.11 -0.11)">
      <use xlink:href="#ArialMT-32"/>
      <use xlink:href="#ArialMT-35" x="55.615234"/>
      <use xlink:href="#ArialMT-30" x="111.230469"/>
      <use xlink:href="#ArialMT-30" x="166.845703"/>
      <use xlink:href="#ArialMT-30" x="222.460938"/>
      <use xlink:href="#ArialMT-30" x="278.076172"/>
      <use xlink:href="#ArialMT-30" x="333.691406"/>
      <use xlink:href="#ArialMT-30" x="389.306641"/>
      <use xlink:href="#ArialMT-30" x="444.921875"/>
     </g>
    </g>
    <g id="line2d_38">
     <defs>
      <path id="mf2f55e3955" d="M -0 4.336998 
L 4.336998 0 
L 0 -4.336998 
L -4.336998 -0 
z
" style="stroke: #ffffff; stroke-opacity: 0.4; stroke-width: 0.339584; stroke-linejoin: miter"/>
     </defs>
     <g>
      <use xlink:href="#mf2f55e3955" x="353.47375" y="197.162187" style="fill: #333333; fill-opacity: 0.4; stroke: #ffffff; stroke-opacity: 0.4; stroke-width: 0.339584; stroke-linejoin: miter"/>
     </g>
    </g>
    <g id="text_31">
     <!-- 500000000 -->
     <g style="fill: #262626" transform="translate(373.27375 201.012187) scale(0.11 -0.11)">
      <use xlink:href="#ArialMT-35"/>
      <use xlink:href="#ArialMT-30" x="55.615234"/>
      <use xlink:href="#ArialMT-30" x="111.230469"/>
      <use xlink:href="#ArialMT-30" x="166.845703"/>
      <use xlink:href="#ArialMT-30" x="222.460938"/>
      <use xlink:href="#ArialMT-30" x="278.076172"/>
      <use xlink:href="#ArialMT-30" x="333.691406"/>
      <use xlink:href="#ArialMT-30" x="389.306641"/>
      <use xlink:href="#ArialMT-30" x="444.921875"/>
     </g>
    </g>
    <g id="line2d_39">
     <defs>
      <path id="m8637762799" d="M -0 4.869828 
L 4.869828 0 
L 0 -4.869828 
L -4.869828 -0 
z
" style="stroke: #ffffff; stroke-opacity: 0.4; stroke-width: 0.339584; stroke-linejoin: miter"/>
     </defs>
     <g>
      <use xlink:href="#m8637762799" x="353.47375" y="212.722031" style="fill: #333333; fill-opacity: 0.4; stroke: #ffffff; stroke-opacity: 0.4; stroke-width: 0.339584; stroke-linejoin: miter"/>
     </g>
    </g>
    <g id="text_32">
     <!-- 750000000 -->
     <g style="fill: #262626" transform="translate(373.27375 216.572031) scale(0.11 -0.11)">
      <use xlink:href="#ArialMT-37"/>
      <use xlink:href="#ArialMT-35" x="55.615234"/>
      <use xlink:href="#ArialMT-30" x="111.230469"/>
      <use xlink:href="#ArialMT-30" x="166.845703"/>
      <use xlink:href="#ArialMT-30" x="222.460938"/>
      <use xlink:href="#ArialMT-30" x="278.076172"/>
      <use xlink:href="#ArialMT-30" x="333.691406"/>
      <use xlink:href="#ArialMT-30" x="389.306641"/>
      <use xlink:href="#ArialMT-30" x="444.921875"/>
     </g>
    </g>
    <g id="line2d_40">
     <defs>
      <path id="mc69549e517" d="M -0 5.349851 
L 5.349851 0 
L 0 -5.349851 
L -5.349851 -0 
z
" style="stroke: #ffffff; stroke-opacity: 0.4; stroke-width: 0.339584; stroke-linejoin: miter"/>
     </defs>
     <g>
      <use xlink:href="#mc69549e517" x="353.47375" y="228.281875" style="fill: #333333; fill-opacity: 0.4; stroke: #ffffff; stroke-opacity: 0.4; stroke-width: 0.339584; stroke-linejoin: miter"/>
     </g>
    </g>
    <g id="text_33">
     <!-- 1000000000 -->
     <g style="fill: #262626" transform="translate(373.27375 232.131875) scale(0.11 -0.11)">
      <use xlink:href="#ArialMT-31"/>
      <use xlink:href="#ArialMT-30" x="55.615234"/>
      <use xlink:href="#ArialMT-30" x="111.230469"/>
      <use xlink:href="#ArialMT-30" x="166.845703"/>
      <use xlink:href="#ArialMT-30" x="222.460938"/>
      <use xlink:href="#ArialMT-30" x="278.076172"/>
      <use xlink:href="#ArialMT-30" x="333.691406"/>
      <use xlink:href="#ArialMT-30" x="389.306641"/>
      <use xlink:href="#ArialMT-30" x="444.921875"/>
      <use xlink:href="#ArialMT-30" x="500.537109"/>
     </g>
    </g>
    <g id="line2d_41">
     <defs>
      <path id="mcf2427f0d2" d="M -0 5.790214 
L 5.790214 0 
L 0 -5.790214 
L -5.790214 -0 
z
" style="stroke: #ffffff; stroke-opacity: 0.4; stroke-width: 0.339584; stroke-linejoin: miter"/>
     </defs>
     <g>
      <use xlink:href="#mcf2427f0d2" x="353.47375" y="243.841719" style="fill: #333333; fill-opacity: 0.4; stroke: #ffffff; stroke-opacity: 0.4; stroke-width: 0.339584; stroke-linejoin: miter"/>
     </g>
    </g>
    <g id="text_34">
     <!-- 1250000000 -->
     <g style="fill: #262626" transform="translate(373.27375 247.691719) scale(0.11 -0.11)">
      <use xlink:href="#ArialMT-31"/>
      <use xlink:href="#ArialMT-32" x="55.615234"/>
      <use xlink:href="#ArialMT-35" x="111.230469"/>
      <use xlink:href="#ArialMT-30" x="166.845703"/>
      <use xlink:href="#ArialMT-30" x="222.460938"/>
      <use xlink:href="#ArialMT-30" x="278.076172"/>
      <use xlink:href="#ArialMT-30" x="333.691406"/>
      <use xlink:href="#ArialMT-30" x="389.306641"/>
      <use xlink:href="#ArialMT-30" x="444.921875"/>
      <use xlink:href="#ArialMT-30" x="500.537109"/>
     </g>
    </g>
   </g>
  </g>
 </g>
 <defs>
  <clipPath id="p7eca0322cd">
   <rect x="45" y="43.2" width="279" height="277.2"/>
  </clipPath>
 </defs>
</svg>
